<svg width="48" height="48" viewBox="0 0 48 48" fill="none" xmlns="http://www.w3.org/2000/svg">
<path d="M33.5005 7.12V4C33.5005 3.18 32.8205 2.5 32.0005 2.5C31.1805 2.5 30.5005 3.18 30.5005 4V7H17.5005V4C17.5005 3.18 16.8205 2.5 16.0005 2.5C15.1805 2.5 14.5005 3.18 14.5005 4V7.12C9.10046 7.62 6.48046 10.84 6.08046 15.62C6.04046 16.2 6.52046 16.68 7.08046 16.68H40.9205C41.5005 16.68 41.9805 16.18 41.9205 15.62C41.5205 10.84 38.9005 7.62 33.5005 7.12Z" fill="#293754"/>
<path opacity="0.4" d="M40 19.6797C41.1 19.6797 42 20.5797 42 21.6797V33.9997C42 39.9997 39 43.9997 32 43.9997H16C9 43.9997 6 39.9997 6 33.9997V21.6797C6 20.5797 6.9 19.6797 8 19.6797H40Z" fill="#293754"/>
<path d="M17 29.9997C16.48 29.9997 15.96 29.7797 15.58 29.4197C15.22 29.0397 15 28.5197 15 27.9997C15 27.4797 15.22 26.9598 15.58 26.5798C16.14 26.0198 17.02 25.8397 17.76 26.1597C18.02 26.2597 18.24 26.3998 18.42 26.5798C18.78 26.9598 19 27.4797 19 27.9997C19 28.5197 18.78 29.0397 18.42 29.4197C18.04 29.7797 17.52 29.9997 17 29.9997Z" fill="#293754"/>
<path d="M24 29.9997C23.48 29.9997 22.96 29.7797 22.58 29.4197C22.22 29.0397 22 28.5197 22 27.9997C22 27.4797 22.22 26.9598 22.58 26.5798C22.76 26.3998 22.98 26.2597 23.24 26.1597C23.98 25.8397 24.86 26.0198 25.42 26.5798C25.78 26.9598 26 27.4797 26 27.9997C26 28.5197 25.78 29.0397 25.42 29.4197C25.32 29.4997 25.22 29.5797 25.12 29.6597C25 29.7397 24.88 29.7998 24.76 29.8398C24.64 29.8998 24.52 29.9398 24.4 29.9598C24.26 29.9798 24.14 29.9997 24 29.9997Z" fill="#293754"/>
<path d="M31 30C30.48 30 29.96 29.78 29.58 29.42C29.22 29.04 29 28.52 29 28C29 27.48 29.22 26.96 29.58 26.58C29.78 26.4 29.98 26.26 30.24 26.16C30.6 26 31 25.96 31.4 26.04C31.52 26.06 31.64 26.1 31.76 26.16C31.88 26.2 32 26.2601 32.12 26.3401C32.22 26.4201 32.32 26.5 32.42 26.58C32.78 26.96 33 27.48 33 28C33 28.52 32.78 29.04 32.42 29.42C32.32 29.5 32.22 29.58 32.12 29.66C32 29.74 31.88 29.8001 31.76 29.84C31.64 29.9 31.52 29.94 31.4 29.96C31.26 29.98 31.12 30 31 30Z" fill="#293754"/>
<path d="M17 37C16.74 37 16.48 36.94 16.24 36.84C15.98 36.7401 15.78 36.6 15.58 36.42C15.22 36.04 15 35.52 15 35C15 34.48 15.22 33.96 15.58 33.58C15.78 33.4 15.98 33.26 16.24 33.16C16.6 33 17 32.96 17.4 33.04C17.52 33.06 17.64 33.1 17.76 33.16C17.88 33.2 18 33.2601 18.12 33.3401C18.22 33.4201 18.32 33.5 18.42 33.58C18.78 33.96 19 34.48 19 35C19 35.52 18.78 36.04 18.42 36.42C18.32 36.5 18.22 36.6 18.12 36.66C18 36.74 17.88 36.8001 17.76 36.84C17.64 36.9 17.52 36.94 17.4 36.96C17.26 36.98 17.14 37 17 37Z" fill="#293754"/>
<path d="M24 37.0004C23.48 37.0004 22.96 36.7804 22.58 36.4204C22.22 36.0404 22 35.5204 22 35.0004C22 34.4804 22.22 33.9604 22.58 33.5804C23.32 32.8404 24.68 32.8404 25.42 33.5804C25.78 33.9604 26 34.4804 26 35.0004C26 35.5204 25.78 36.0404 25.42 36.4204C25.04 36.7804 24.52 37.0004 24 37.0004Z" fill="#293754"/>
<path d="M31 37.0004C30.48 37.0004 29.96 36.7804 29.58 36.4204C29.22 36.0404 29 35.5204 29 35.0004C29 34.4804 29.22 33.9604 29.58 33.5804C30.32 32.8404 31.68 32.8404 32.42 33.5804C32.78 33.9604 33 34.4804 33 35.0004C33 35.5204 32.78 36.0404 32.42 36.4204C32.04 36.7804 31.52 37.0004 31 37.0004Z" fill="#293754"/>
</svg>
