<svg width="534" height="986" viewBox="0 0 534 986" fill="none" xmlns="http://www.w3.org/2000/svg">
<path opacity="0.1" d="M-220.719 856.691C-198.76 865.973 -178.58 876.727 -153.569 881.065C-135.706 884.164 -117.341 883.876 -98.8239 879.376C-64.2999 870.985 -30.0869 857.451 -0.941892 838.651C28.8395 819.44 60.6231 801.18 85.6023 777.454C108.827 755.394 129.487 730.9 154.041 709.843C195.181 674.56 251.939 656.085 305.627 641.699C334.03 634.089 362.578 626.63 391.145 619.666C409.071 615.297 427.85 612.501 445.083 605.997" stroke="white" stroke-width="3" stroke-linecap="round"/>
<path opacity="0.2" d="M-219.979 890.36C-196.253 900.382 -174.45 911.994 -147.428 916.676C-128.127 920.021 -108.284 919.707 -88.2765 914.845C-50.9731 905.778 -14.0051 891.156 17.4878 870.848C49.6683 850.096 84.012 830.37 111.004 804.742C136.1 780.914 158.427 754.457 184.959 731.711C229.414 693.6 290.742 673.638 348.752 658.094C379.442 649.871 410.289 641.811 441.155 634.287C460.525 629.566 480.816 626.543 499.436 619.518" stroke="white" stroke-width="3" stroke-linecap="round"/>
<path opacity="0.1" d="M-351.004 582.438C-332.195 597.087 -315.486 612.697 -292.45 623.361C-275.997 630.978 -258.184 635.453 -239.133 635.898C-203.614 636.729 -167.063 632.511 -134.046 621.895C-100.307 611.047 -64.8803 601.635 -34.6116 585.182C-6.4692 569.885 19.8272 551.573 48.9941 537.588C97.8638 514.156 157.47 511 213.052 511C242.456 511 271.963 511.184 301.358 511.852C319.805 512.271 338.668 514.43 356.996 512.609" stroke="white" stroke-width="3" stroke-linecap="round"/>
<path opacity="0.1" d="M-503.002 296.438C-484.193 311.087 -467.484 326.697 -444.448 337.361C-427.996 344.978 -410.182 349.453 -391.131 349.898C-355.612 350.729 -319.062 346.511 -286.044 335.895C-252.305 325.047 -216.878 315.635 -186.61 299.182C-158.467 283.885 -132.171 265.573 -103.004 251.588C-54.1343 228.156 5.47187 225 61.0535 225C90.4583 225 119.965 225.184 149.36 225.852C167.807 226.271 186.67 228.43 204.998 226.609" stroke="white" stroke-width="3" stroke-linecap="round"/>
<path opacity="0.2" d="M-511 329.153C-490.676 344.974 -472.622 361.833 -447.732 373.35C-429.955 381.576 -410.707 386.409 -390.123 386.89C-351.744 387.787 -312.251 383.231 -276.575 371.766C-240.12 360.05 -201.841 349.885 -169.135 332.117C-138.727 315.596 -110.314 295.819 -78.7988 280.715C-25.9946 255.408 38.4103 252 98.4667 252C130.239 252 162.121 252.199 193.883 252.92C213.814 253.372 234.196 255.704 254 253.737" stroke="white" stroke-width="3" stroke-linecap="round"/>
</svg>
