<svg width="491" height="342" viewBox="0 0 491 342" fill="none" xmlns="http://www.w3.org/2000/svg">
<path opacity="0.1" d="M19.7903 252.246C41.7502 261.528 61.9298 272.281 86.9405 276.62C104.804 279.719 123.169 279.431 141.686 274.93C176.21 266.54 210.423 253.005 239.568 234.205C269.349 214.995 301.133 196.734 326.112 173.008C349.336 150.949 369.997 126.455 394.551 105.397C435.69 70.1149 492.449 51.6395 546.137 37.2539C574.539 29.6434 603.088 22.1841 631.655 15.221C649.581 10.8515 668.36 8.05521 685.593 1.55203" stroke="white" stroke-width="3" stroke-linecap="round"/>
<path opacity="0.2" d="M20.5312 285.919C44.2571 295.94 66.0593 307.552 93.0822 312.235C112.383 315.579 132.226 315.266 152.233 310.403C189.537 301.336 226.505 286.714 257.998 266.406C290.178 245.654 324.522 225.928 351.514 200.3C376.61 176.472 398.937 150.015 425.469 127.269C469.924 89.158 531.252 69.1967 589.262 53.6529C619.952 45.4297 650.799 37.3698 681.665 29.8458C701.034 25.1243 721.325 22.1018 739.945 15.076" stroke="white" stroke-width="3" stroke-linecap="round"/>
</svg>
