<svg width="19" height="19" viewBox="0 0 19 19" fill="none" xmlns="http://www.w3.org/2000/svg">
<g id="Icons">
<g id="trash">
<path id="Vector" d="M16.25 4.84375C13.7525 4.59625 11.24 4.46875 8.735 4.46875C7.25 4.46875 5.765 4.54375 4.28 4.69375L2.75 4.84375" stroke="#293754" stroke-linecap="round" stroke-linejoin="round"/>
<path id="Vector_2" d="M6.87537 4.08492L7.04037 3.10242C7.16037 2.38992 7.25037 1.85742 8.51787 1.85742H10.4829C11.7504 1.85742 11.8479 2.41992 11.9604 3.10992L12.1254 4.08492" stroke="#293754" stroke-linecap="round" stroke-linejoin="round"/>
<path id="Vector_3" d="M14.6378 7.21484L14.1503 14.7673C14.0678 15.9448 14.0003 16.8598 11.9078 16.8598H7.09279C5.00029 16.8598 4.93279 15.9448 4.85029 14.7673L4.36279 7.21484" stroke="#293754" stroke-linecap="round" stroke-linejoin="round"/>
<path id="Vector_4" d="M8.24744 12.7344H10.7449" stroke="#293754" stroke-linecap="round" stroke-linejoin="round"/>
<path id="Vector_5" d="M7.62463 9.73242H11.3746" stroke="#293754" stroke-linecap="round" stroke-linejoin="round"/>
</g>
</g>
</svg>
