<svg width="48" height="48" viewBox="0 0 48 48" fill="none" xmlns="http://www.w3.org/2000/svg">
<path opacity="0.4" fill-rule="evenodd" clip-rule="evenodd" d="M12.2976 35.3644C12.7117 35.4132 14.3139 35.5243 14.8708 34.4104C14.9514 34.2492 15.1476 34.1838 15.3088 34.2644C15.4701 34.345 15.5355 34.5412 15.4548 34.7025C14.8851 35.8419 13.5942 36.0392 12.789 36.0428C12.3818 36.0446 12.0989 35.9969 12.0964 35.9965C11.9182 35.9682 11.7967 35.8007 11.8249 35.6225C11.8532 35.4442 12.0207 35.3227 12.1989 35.351C12.1997 35.3511 12.2351 35.357 12.2976 35.3644ZM6.0735 27.2003C6.23899 27.4497 7.31099 28.8753 9.83764 28.2437C10.013 28.1999 10.1908 28.3065 10.2347 28.4819C10.2785 28.6574 10.1719 28.8352 9.99644 28.879C8.13071 29.3454 6.91917 28.8171 6.22711 28.2851C5.71912 27.8946 5.49099 27.5021 5.48942 27.4994C5.39675 27.3445 5.44721 27.1438 5.60211 27.0511C5.75702 26.9585 5.95775 27.009 6.05041 27.1639C6.05066 27.1643 6.05823 27.1772 6.0735 27.2003ZM18.2322 27.493C18.239 27.4946 20.5887 28.0633 22.8977 25.3515C23.0945 24.4583 23.3185 23.5998 23.5353 22.7684C23.5782 22.6039 23.6209 22.4405 23.663 22.2781C22.8951 19.2996 22.3388 16.6498 23.6333 13.9722C23.0878 12.956 23.0765 12.7865 23.0561 12.4806C23.0461 12.3315 23.0333 12.1402 22.8984 11.6856C22.7468 11.175 22.5453 10.7191 22.3026 10.3167C21.6649 9.25911 20.7422 8.57751 19.6983 8.24449C18.6436 7.90801 17.4613 7.92335 16.3178 8.2627C15.7726 8.42447 15.2353 8.66104 14.7242 8.96924C14.7236 8.96962 14.7248 8.96886 14.7242 8.96924C14.744 9.02638 14.7464 9.09079 14.7311 9.15391C14.7292 9.16178 14.0457 11.9005 15.3089 12.532C15.4701 12.6126 15.5355 12.8088 15.4549 12.97C15.3743 13.1313 15.1781 13.1967 15.0168 13.1161C13.5824 12.3989 13.8891 10.0589 14.0394 9.26582C13.784 9.3484 13.5103 9.41726 13.2336 9.4863L13.2119 9.4925C12.8017 9.5949 12.3853 9.69831 12.0447 9.84537C11.2383 10.1934 10.4953 10.648 9.85428 11.1604C9.18585 11.6947 8.62589 12.2924 8.2185 12.8982C6.99912 14.7114 6.8126 15.8297 6.67602 16.6489C6.60531 17.0727 6.54663 17.4247 6.37932 17.7666C6.73209 18.3728 8.20786 20.5951 10.5871 20.0003C10.7625 19.9565 10.9403 20.0632 10.9842 20.2386C11.028 20.414 10.9213 20.5918 10.7459 20.6356C8.25318 21.2588 6.62909 19.3351 6.00445 18.3986C5.81427 18.1134 5.71675 17.9198 5.71552 17.9175C5.66251 17.8146 5.66935 17.6967 5.72327 17.6035L5.58037 17.8377C4.53384 19.5509 3.86314 20.6488 4.02368 23.3087C4.05609 23.846 4.1514 24.3623 4.28558 24.8528C4.41821 25.3377 4.58899 25.7957 4.77448 26.2228C5.00904 26.763 5.18202 27.0065 5.31047 27.1874C5.49246 27.4436 5.55721 27.5348 5.59004 28.7507C5.62112 29.9049 5.92006 30.8992 6.35579 31.7493C6.78951 32.5955 7.35665 33.2955 7.92873 33.8667C8.42046 34.3576 8.96748 34.7395 9.56828 35.0412C10.1612 35.339 10.8045 35.5567 11.4976 35.7231C11.9621 35.8346 12.0732 36.0646 12.2312 36.3917C12.4721 36.8905 12.7941 37.5573 14.029 38.3564C15.3282 39.197 16.9089 39.5297 18.4066 39.3288C19.8457 39.1357 21.2104 38.4513 22.1806 37.2529C24.3827 34.5325 23.5971 32.267 23.1395 30.9472C23.0562 30.707 22.9849 30.5014 22.9519 30.3433C22.9514 28.6468 23.1934 27.0702 23.5158 25.5862C23.5038 25.6309 23.4822 25.6736 23.4506 25.7114C23.1874 26.0262 22.9222 26.302 22.6582 26.5434C20.3308 28.6721 18.0959 28.1324 18.0887 28.1308C17.9126 28.0912 17.8019 27.9163 17.8415 27.7402C17.8811 27.5641 18.056 27.4534 18.2322 27.493ZM12.6201 31.418C12.6979 31.2553 12.8929 31.1865 13.0556 31.2643C13.0591 31.266 14.2994 31.8882 15.6394 29.8782C15.7399 29.7275 15.9435 29.6868 16.0941 29.7873C16.2448 29.8877 16.2855 30.0913 16.1851 30.242C14.5275 32.7283 12.7788 31.8559 12.7738 31.8535C12.6111 31.7757 12.5423 31.5807 12.6201 31.418ZM17.2599 19.8581C17.1001 19.7746 17.0381 19.5773 17.1216 19.4175C17.1242 19.4125 17.9964 17.671 20.5111 18.5093C20.6822 18.5658 20.7751 18.7505 20.7186 18.9216C20.662 19.0928 20.4773 19.1858 20.3062 19.1292C18.3246 18.4686 17.7023 19.7162 17.7005 19.7197C17.617 19.8796 17.4198 19.9415 17.2599 19.8581Z" fill="#293754"/>
<path fill-rule="evenodd" clip-rule="evenodd" d="M35.7033 35.3644C35.7657 35.357 35.8011 35.3511 35.8019 35.3509C35.9802 35.3227 36.1476 35.4442 36.1759 35.6225C36.2042 35.8007 36.0826 35.9682 35.9044 35.9965C35.902 35.9968 35.6191 36.0445 35.2118 36.0427C34.4067 36.0391 33.1157 35.8419 32.546 34.7024C32.4654 34.5412 32.5308 34.345 32.692 34.2644C32.8533 34.1838 33.0494 34.2492 33.1301 34.4104C33.687 35.5243 35.2892 35.4132 35.7033 35.3644ZM41.9274 27.2002C41.9426 27.1772 41.9502 27.1643 41.9504 27.1638C42.0431 27.0089 42.2438 26.9585 42.3987 27.0511C42.5536 27.1438 42.6041 27.3445 42.5114 27.4994C42.5098 27.5021 42.2817 27.8945 41.7737 28.285C41.0817 28.8171 39.8702 29.3454 38.0044 28.879C37.829 28.8351 37.7223 28.6573 37.7662 28.4819C37.81 28.3065 37.9878 28.1998 38.1632 28.2437C40.6902 28.8754 41.7621 27.4493 41.9274 27.2002ZM25.1031 25.3515C27.4122 28.0633 29.7619 27.4946 29.7687 27.493C29.9448 27.4534 30.1197 27.5641 30.1593 27.7402C30.1989 27.9163 30.0883 28.0912 29.9121 28.1308C29.9049 28.1324 27.67 28.6721 25.3427 26.5434C25.0786 26.302 24.8135 26.0262 24.5502 25.7114C24.5187 25.6736 24.497 25.6309 24.4851 25.5862C24.8075 27.0702 25.0494 28.6468 25.049 30.3433C25.016 30.5014 24.9447 30.707 24.8614 30.9472C24.4038 32.267 23.6182 34.5325 25.8203 37.2529C26.7905 38.4513 28.1552 39.1358 29.5943 39.3288C31.092 39.5297 32.6727 39.197 33.9718 38.3564C35.2067 37.5573 35.5288 36.8905 35.7697 36.3917C35.9276 36.0646 36.0387 35.8346 36.5033 35.7231C37.1964 35.5567 37.8396 35.339 38.4326 35.0412C39.0334 34.7395 39.5804 34.3576 40.0721 33.8667C40.6442 33.2955 41.2114 32.5955 41.6451 31.7493C42.0808 30.8992 42.3797 29.9049 42.4108 28.7507C42.4436 27.5348 42.5084 27.4436 42.6904 27.1874C42.8188 27.0065 42.9918 26.763 43.2264 26.2228C43.4119 25.7957 43.5826 25.3377 43.7153 24.8528C43.8495 24.3623 43.9448 23.846 43.9772 23.3087C44.1377 20.6488 43.467 19.5509 42.4205 17.8377L42.2778 17.6038C42.3315 17.6969 42.3383 17.8147 42.2853 17.9175C42.2841 17.9198 42.1866 18.1134 41.9964 18.3986C41.3718 19.3351 39.7477 21.2588 37.2549 20.6356C37.0795 20.5918 36.9728 20.414 37.0167 20.2386C37.0605 20.0631 37.2383 19.9565 37.4137 20.0003C39.793 20.5951 41.2688 18.3728 41.6215 17.7666C41.4542 17.4247 41.3955 17.0727 41.3248 16.6489C41.1883 15.8297 41.0017 14.7114 39.7824 12.8982C39.375 12.2924 38.815 11.6947 38.1466 11.1604C37.5055 10.648 36.7625 10.1934 35.9561 9.84537C35.6155 9.69831 35.1993 9.59443 34.7891 9.49203L34.7673 9.4863C34.4906 9.41726 34.2168 9.3484 33.9615 9.26582C34.1117 10.0589 34.4185 12.3989 32.984 13.1161C32.8228 13.1967 32.6266 13.1313 32.546 12.97C32.4654 12.8088 32.5307 12.6126 32.692 12.532C33.9551 11.9005 33.2717 9.16178 33.2698 9.15391C33.2545 9.09079 33.2587 9.02748 33.2785 8.97034C33.2779 8.96997 33.2791 8.97072 33.2785 8.97034C32.7673 8.66214 32.2283 8.42447 31.6831 8.2627C30.5395 7.92335 29.3572 7.90801 28.3026 8.24449C27.2586 8.57751 26.3359 9.25911 25.6982 10.3167C25.4556 10.7191 25.254 11.175 25.1025 11.6856C24.9676 12.1403 24.9548 12.3315 24.9448 12.4806C24.9244 12.7865 24.913 12.956 24.3676 13.9722C25.6621 16.6498 25.1057 19.2996 24.3379 22.2781C24.38 22.4405 24.4226 22.6039 24.4655 22.7684C24.6824 23.5998 24.9064 24.4583 25.1031 25.3515ZM35.3808 31.418C35.4586 31.5807 35.3898 31.7757 35.2271 31.8534C35.2221 31.8559 33.4734 32.7282 31.8158 30.242C31.7154 30.0913 31.7561 29.8877 31.9068 29.7873C32.0574 29.6868 32.261 29.7275 32.3615 29.8782C33.7015 31.8882 34.9418 31.266 34.9453 31.2643C35.108 31.1865 35.303 31.2553 35.3808 31.418ZM30.741 19.858C30.5811 19.9415 30.3839 19.8796 30.3004 19.7197C30.2986 19.7162 29.6763 18.4686 27.6947 19.1292C27.5236 19.1857 27.3389 19.0928 27.2823 18.9216C27.2258 18.7505 27.3187 18.5658 27.4898 18.5092C30.0045 17.671 30.8767 19.4125 30.8793 19.4175C30.9628 19.5773 30.9008 19.7746 30.741 19.858Z" fill="#293754"/>
</svg>
