<svg width="19" height="19" viewBox="0 0 19 19" fill="none" xmlns="http://www.w3.org/2000/svg">
<g id="Icons">
<path id="Vector" d="M7.06352 16.1094H14.7493M9.33758 4.34316C9.33758 4.34316 9.33758 5.56913 10.5635 6.7951C11.7895 8.02107 13.0155 8.02107 13.0155 8.02107M4.48899 13.8504L7.06352 13.4826C7.43489 13.4296 7.77903 13.2575 8.0443 12.9923L14.2415 6.79509C14.9185 6.11801 14.9185 5.02024 14.2415 4.34316L13.0155 3.11719C12.3384 2.4401 11.2406 2.4401 10.5635 3.11719L4.36639 9.31434C4.10113 9.57961 3.92906 9.92375 3.876 10.2951L3.50821 12.8697C3.42648 13.4418 3.91687 13.9322 4.48899 13.8504Z" stroke="white" stroke-linecap="round"/>
</g>
</svg>
