<svg width="20" height="21" viewBox="0 0 20 21" fill="none" xmlns="http://www.w3.org/2000/svg">
<g id="Icons">
<path id="Vector 9" d="M9.99967 4.66797L9.64612 4.31442L9.99967 3.96086L10.3532 4.31442L9.99967 4.66797ZM10.4997 12.168C10.4997 12.4441 10.2758 12.668 9.99967 12.668C9.72353 12.668 9.49967 12.4441 9.49967 12.168L10.4997 12.168ZM5.47945 8.48108L9.64612 4.31442L10.3532 5.02152L6.18656 9.18819L5.47945 8.48108ZM10.3532 4.31442L14.5199 8.48108L13.8128 9.18819L9.64612 5.02152L10.3532 4.31442ZM10.4997 4.66797L10.4997 12.168L9.49967 12.168L9.49967 4.66797L10.4997 4.66797Z" fill="#293754"/>
<path id="Vector 114" d="M4.16699 13.832L4.16699 14.6654C4.16699 15.5858 4.91318 16.332 5.83366 16.332L14.167 16.332C15.0875 16.332 15.8337 15.5858 15.8337 14.6654V13.832" stroke="#293754"/>
</g>
</svg>
