<svg width="20" height="20" viewBox="0 0 20 20" fill="none" xmlns="http://www.w3.org/2000/svg">
<g id="vuesax/linear/setting-4">
<g id="setting-4">
<path id="Vector" d="M18.333 5.41797H13.333" stroke="#293754" stroke-miterlimit="10" stroke-linecap="round" stroke-linejoin="round"/>
<path id="Vector_2" d="M5.00033 5.41797H1.66699" stroke="#293754" stroke-miterlimit="10" stroke-linecap="round" stroke-linejoin="round"/>
<path id="Vector_3" d="M8.33366 8.33333C9.94449 8.33333 11.2503 7.0275 11.2503 5.41667C11.2503 3.80584 9.94449 2.5 8.33366 2.5C6.72283 2.5 5.41699 3.80584 5.41699 5.41667C5.41699 7.0275 6.72283 8.33333 8.33366 8.33333Z" stroke="#293754" stroke-miterlimit="10" stroke-linecap="round" stroke-linejoin="round"/>
<path id="Vector_4" d="M18.3333 14.582H15" stroke="#293754" stroke-miterlimit="10" stroke-linecap="round" stroke-linejoin="round"/>
<path id="Vector_5" d="M6.66699 14.582H1.66699" stroke="#293754" stroke-miterlimit="10" stroke-linecap="round" stroke-linejoin="round"/>
<path id="Vector_6" d="M11.6667 17.5013C13.2775 17.5013 14.5833 16.1955 14.5833 14.5846C14.5833 12.9738 13.2775 11.668 11.6667 11.668C10.0558 11.668 8.75 12.9738 8.75 14.5846C8.75 16.1955 10.0558 17.5013 11.6667 17.5013Z" stroke="#293754" stroke-miterlimit="10" stroke-linecap="round" stroke-linejoin="round"/>
</g>
</g>
</svg>
