<svg width="16" height="16" viewBox="0 0 16 16" fill="none" xmlns="http://www.w3.org/2000/svg">
<g clip-path="url(#clip0_1_832)">
<path d="M12.4612 3.02698C12.2505 3.02698 12.0791 3.19841 12.0791 3.40906C12.0791 3.61971 12.2505 3.79114 12.4612 3.79114C12.6719 3.79114 12.8433 3.61974 12.8433 3.40906C12.8433 3.19838 12.6719 3.02698 12.4612 3.02698Z" fill="#293754"/>
<path d="M7.88827 4.59729C6.02052 4.59729 4.50098 6.11683 4.50098 7.98458C4.50098 9.85233 6.02052 11.3719 7.88827 11.3719C9.75605 11.3719 11.2756 9.85236 11.2756 7.98461C11.2756 6.11686 9.75605 4.59729 7.88827 4.59729Z" fill="#293754"/>
<path d="M11.4405 0.114868H4.33101C1.95204 0.114868 0.0166016 2.05031 0.0166016 4.4293V11.5387C0.0166016 13.9177 1.95204 15.8531 4.33101 15.8531H11.4405C13.8195 15.8531 15.7549 13.9177 15.7549 11.5387V4.4293C15.7549 2.05031 13.8195 0.114868 11.4405 0.114868ZM7.88573 12.3007C5.50547 12.3007 3.56905 10.3643 3.56905 7.984C3.56905 5.60374 5.5055 3.66735 7.88573 3.66735C10.266 3.66735 12.2024 5.60377 12.2024 7.984C12.2024 10.3642 10.266 12.3007 7.88573 12.3007ZM12.4606 4.72064C11.7375 4.72064 11.1491 4.1323 11.1491 3.40914C11.1491 2.68598 11.7375 2.09761 12.4606 2.09761C13.1838 2.09761 13.7721 2.68595 13.7721 3.40911C13.7721 4.13227 13.1838 4.72064 12.4606 4.72064Z" fill="#293754"/>
</g>
<defs>
<clipPath id="clip0_1_832">
<rect width="15.7383" height="15.7383" fill="white" transform="translate(0.0166016 0.114868)"/>
</clipPath>
</defs>
</svg>
