<svg width="17" height="16" viewBox="0 0 17 16" fill="none" xmlns="http://www.w3.org/2000/svg">
<g clip-path="url(#clip0_210_5483)">
<path d="M13.3821 2.9288C13.1714 2.9288 13 3.10023 13 3.31088C13 3.52154 13.1714 3.69297 13.3821 3.69297C13.5928 3.69297 13.7642 3.52157 13.7642 3.31088C13.7642 3.1002 13.5928 2.9288 13.3821 2.9288Z" fill="white"/>
<path d="M8.80917 4.49911C6.94142 4.49911 5.42188 6.01866 5.42188 7.88641C5.42188 9.75416 6.94142 11.2737 8.80917 11.2737C10.6769 11.2737 12.1965 9.75419 12.1965 7.88644C12.1965 6.01869 10.6769 4.49911 8.80917 4.49911Z" fill="white"/>
<path d="M12.3614 0.0166922H5.2519C2.87294 0.0166922 0.9375 1.95213 0.9375 4.33113V11.4405C0.9375 13.8195 2.87294 15.7549 5.2519 15.7549H12.3614C14.7404 15.7549 16.6758 13.8195 16.6758 11.4405V4.33113C16.6758 1.95213 14.7404 0.0166922 12.3614 0.0166922ZM8.80663 12.2025C6.42637 12.2025 4.48995 10.2661 4.48995 7.88582C4.48995 5.50556 6.4264 3.56917 8.80663 3.56917C11.1869 3.56917 13.1233 5.50559 13.1233 7.88582C13.1233 10.266 11.1869 12.2025 8.80663 12.2025ZM13.3815 4.62247C12.6584 4.62247 12.07 4.03413 12.07 3.31097C12.07 2.58781 12.6584 1.99944 13.3815 1.99944C14.1047 1.99944 14.693 2.58778 14.693 3.31094C14.693 4.0341 14.1047 4.62247 13.3815 4.62247Z" fill="white"/>
</g>
<defs>
<clipPath id="clip0_210_5483">
<rect width="15.7383" height="15.7383" fill="white" transform="translate(0.9375 0.0166922)"/>
</clipPath>
</defs>
</svg>
