<svg width="192" height="24" viewBox="0 0 192 24" fill="none" xmlns="http://www.w3.org/2000/svg">
<path d="M191.061 13.0607C191.646 12.4749 191.646 11.5251 191.061 10.9393L181.515 1.3934C180.929 0.807611 179.979 0.807611 179.393 1.3934C178.808 1.97919 178.808 2.92893 179.393 3.51472L187.879 12L179.393 20.4853C178.808 21.0711 178.808 22.0208 179.393 22.6066C179.979 23.1924 180.929 23.1924 181.515 22.6066L191.061 13.0607ZM0 13.5H2.96875V10.5H0V13.5ZM8.90625 13.5H14.8438V10.5H8.90625V13.5ZM20.7812 13.5H26.7188V10.5H20.7812V13.5ZM32.6562 13.5H38.5938V10.5H32.6562V13.5ZM44.5312 13.5H50.4688V10.5H44.5312V13.5ZM56.4062 13.5H62.3438V10.5H56.4062V13.5ZM68.2812 13.5H74.2188V10.5H68.2812V13.5ZM80.1562 13.5H86.0938V10.5H80.1562V13.5ZM92.0312 13.5H97.9688V10.5H92.0312V13.5ZM103.906 13.5H109.844V10.5H103.906V13.5ZM115.781 13.5H121.719V10.5H115.781V13.5ZM127.656 13.5H133.594V10.5H127.656V13.5ZM139.531 13.5H145.469V10.5H139.531V13.5ZM151.406 13.5H157.344V10.5H151.406V13.5ZM163.281 13.5H169.219V10.5H163.281V13.5ZM175.156 13.5H181.094V10.5H175.156V13.5ZM187.031 13.5H190V10.5H187.031V13.5Z" fill="#293754"/>
</svg>
