<svg width="447" height="282" viewBox="0 0 447 282" fill="none" xmlns="http://www.w3.org/2000/svg">
<path d="M0 4.5C0 6.70914 1.79086 8.5 4 8.5C6.20914 8.5 8 6.70914 8 4.5C8 2.29086 6.20914 0.5 4 0.5C1.79086 0.5 0 2.29086 0 4.5ZM442 281.5L446.33 274H437.67L442 281.5ZM4 102.292H3.25V103.042H4V102.292ZM442 102.292H442.75V101.542H442V102.292ZM3.25 4.5V12.6493H4.75V4.5H3.25ZM3.25 28.9479V45.2466H4.75V28.9479H3.25ZM3.25 61.5452V77.8438H4.75V61.5452H3.25ZM3.25 94.1424V102.292H4.75V94.1424H3.25ZM4 103.042H11.3V101.542H4V103.042ZM25.9 103.042H40.5V101.542H25.9V103.042ZM55.1 103.042H69.7V101.542H55.1V103.042ZM84.3 103.042H98.9V101.542H84.3V103.042ZM113.5 103.042H128.1V101.542H113.5V103.042ZM142.7 103.042H157.3V101.542H142.7V103.042ZM171.9 103.042H186.5V101.542H171.9V103.042ZM201.1 103.042H215.7V101.542H201.1V103.042ZM230.3 103.042H244.9V101.542H230.3V103.042ZM259.5 103.042H274.1V101.542H259.5V103.042ZM288.7 103.042H303.3V101.542H288.7V103.042ZM317.9 103.042H332.5V101.542H317.9V103.042ZM347.1 103.042H361.7V101.542H347.1V103.042ZM376.3 103.042H390.9V101.542H376.3V103.042ZM405.5 103.042H420.1V101.542H405.5V103.042ZM434.7 103.042H442V101.542H434.7V103.042ZM441.25 102.292V109.759H442.75V102.292H441.25ZM441.25 124.693V139.627H442.75V124.693H441.25ZM441.25 154.561V169.495H442.75V154.561H441.25ZM441.25 184.429V199.363H442.75V184.429H441.25ZM441.25 214.297V229.231H442.75V214.297H441.25ZM441.25 244.165V259.099H442.75V244.165H441.25ZM441.25 274.033V274.75H442.75V274.033H441.25Z" fill="#293754"/>
</svg>
