<svg width="48" height="48" viewBox="0 0 48 48" fill="none" xmlns="http://www.w3.org/2000/svg">
<path opacity="0.4" d="M24.0002 34.6997C25.8007 34.6997 27.2602 33.2401 27.2602 31.4397C27.2602 29.6392 25.8007 28.1797 24.0002 28.1797C22.1998 28.1797 20.7402 29.6392 20.7402 31.4397C20.7402 33.2401 22.1998 34.6997 24.0002 34.6997Z" fill="#293754"/>
<path d="M33.3 18.8809H14.7C6.5 18.8809 4 21.3809 4 29.5809V33.3009C4 41.5009 6.5 44.0009 14.7 44.0009H33.3C41.5 44.0009 44 41.5009 44 33.3009V29.5809C44 21.3809 41.5 18.8809 33.3 18.8809ZM24 37.4809C20.66 37.4809 17.96 34.7609 17.96 31.4409C17.96 28.1209 20.66 25.4009 24 25.4009C27.34 25.4009 30.04 28.1209 30.04 31.4409C30.04 34.7609 27.34 37.4809 24 37.4809Z" fill="#293754"/>
<path opacity="0.4" d="M14.2414 18.9V16.56C14.2414 10.7 15.9014 6.8 24.0014 6.8C32.1014 6.8 33.7614 10.7 33.7614 16.56V18.9C34.7814 18.92 35.7014 18.96 36.5614 19.08V16.56C36.5614 11.16 35.2614 4 24.0014 4C12.7414 4 11.4414 11.16 11.4414 16.56V19.06C12.2814 18.96 13.2214 18.9 14.2414 18.9Z" fill="#293754"/>
</svg>
