<svg width="44" height="44" viewBox="0 0 44 44" fill="none" xmlns="http://www.w3.org/2000/svg">
<path d="M43.9257 25.5712C43.9257 21.2525 39.9644 17.707 34.9595 17.3933V2.45072C34.9587 1.80098 34.7003 1.17807 34.2409 0.718631C33.7814 0.259196 33.1585 0.000753614 32.5088 0H11.4646C10.8148 0.000628018 10.1917 0.259015 9.73218 0.718464C9.27264 1.17791 9.01413 1.8009 9.01338 2.45072V6.97155C3.94204 7.7285 0.074707 11.4834 0.074707 15.9909C0.074707 20.4984 3.94157 24.2533 9.0148 25.0107V41.5493C9.01556 42.1989 9.27387 42.8216 9.7331 43.281C10.1923 43.7404 10.815 43.999 11.4646 44H32.5083C33.158 43.9992 33.7809 43.7408 34.2404 43.2814C34.6998 42.8219 34.9583 42.199 34.959 41.5493V33.7496C39.9639 33.4373 43.9257 29.8922 43.9257 25.5712ZM11.4646 1.42373H32.5083C32.7806 1.42411 33.0416 1.53243 33.2341 1.72495C33.4266 1.91746 33.5349 2.17846 33.5353 2.45072V3.0017H10.439V2.45072C10.4394 2.17871 10.5475 1.91792 10.7397 1.72545C10.9319 1.53297 11.1926 1.42449 11.4646 1.42373ZM1.49844 15.9933C1.49844 11.7268 5.71554 8.25765 10.8994 8.25765C16.0832 8.25765 20.3007 11.7287 20.3007 15.9933C20.2845 16.9368 20.0772 17.8672 19.6913 18.7283C19.3054 19.5894 18.7489 20.3634 18.0555 21.0034C17.8395 21.2133 17.6964 21.487 17.6474 21.7843C17.5983 22.0816 17.6459 22.3867 17.7831 22.6549L19.3089 25.5973L14.6751 23.624C14.3797 23.4986 14.062 23.434 13.7411 23.4342C13.574 23.4343 13.4073 23.4518 13.2438 23.4864C12.473 23.6488 11.6875 23.7304 10.8998 23.7298C5.71601 23.7289 1.49844 20.2573 1.49844 15.9909V15.9933ZM10.8998 25.1526C11.7865 25.1532 12.6709 25.0612 13.5385 24.8783C13.7327 24.8373 13.9348 24.8571 14.1175 24.9348L19.3307 27.1544C19.4806 27.2189 19.6421 27.2523 19.8053 27.2526C20.0103 27.2508 20.2114 27.1965 20.3895 27.095C20.5675 26.9934 20.7166 26.8479 20.8225 26.6723C20.9283 26.4968 20.9875 26.2971 20.9943 26.0922C21.0011 25.8873 20.9552 25.6841 20.8612 25.5019L19.0426 22.0294C19.875 21.2567 20.5419 20.3232 21.003 19.2852C21.464 18.2473 21.7097 17.1265 21.7249 15.9909C21.7249 10.939 16.8691 6.83155 10.8998 6.83155C10.7456 6.83155 10.5923 6.83582 10.439 6.84151V4.42544H33.5353V17.3923C28.5242 17.7008 24.5548 21.2464 24.5548 25.5712C24.5678 26.5769 24.7825 27.5697 25.1861 28.4909C25.5898 29.412 26.1743 30.2428 26.905 30.9339L25.3294 33.9712C25.2394 34.1452 25.1956 34.3393 25.2021 34.535C25.2085 34.7307 25.2651 34.9215 25.3664 35.0891C25.4677 35.2567 25.6103 35.3955 25.7805 35.4923C25.9507 35.589 26.143 35.6405 26.3388 35.6417C26.4946 35.6411 26.6486 35.6088 26.7915 35.5468L31.4168 33.5773C31.5634 33.514 31.726 33.4974 31.8823 33.5299C32.4271 33.6441 32.9796 33.718 33.5353 33.751V38.2524H10.439V25.1427C10.5923 25.1479 10.7456 25.1526 10.8998 25.1526ZM32.5083 42.5763H11.4646C11.1922 42.576 10.9311 42.4678 10.7385 42.2752C10.5459 42.0827 10.4375 41.8216 10.4371 41.5493V39.6818H33.5353V41.5493C33.5349 41.8215 33.4266 42.0825 33.2341 42.2751C33.0416 42.4676 32.7806 42.5759 32.5083 42.5763ZM34.2405 32.3567C33.5473 32.3571 32.8559 32.2856 32.1775 32.1432C31.7352 32.0484 31.2744 32.0931 30.8587 32.2713L26.9534 33.9323L28.2039 31.521C28.3338 31.2677 28.3789 30.9795 28.3327 30.6987C28.2865 30.4178 28.1513 30.1593 27.9471 29.961C27.3391 29.4002 26.8511 28.7218 26.5127 27.9669C26.1744 27.2121 25.9927 26.3964 25.9786 25.5693C25.9786 21.8282 29.6846 18.7828 34.2405 18.7828C38.7965 18.7828 42.502 21.8301 42.502 25.5712C42.502 29.3123 38.7955 32.3567 34.2405 32.3567ZM39.5021 22.8011C39.5021 22.9899 39.4271 23.171 39.2936 23.3045C39.1601 23.438 38.9791 23.513 38.7903 23.513H30.1297C29.9409 23.513 29.7599 23.438 29.6264 23.3045C29.4928 23.171 29.4178 22.9899 29.4178 22.8011C29.4178 22.6123 29.4928 22.4312 29.6264 22.2977C29.7599 22.1642 29.9409 22.0892 30.1297 22.0892H38.7903C38.9791 22.0892 39.1601 22.1642 39.2936 22.2977C39.4271 22.4312 39.5021 22.6123 39.5021 22.8011ZM39.5021 25.6443C39.5021 25.8331 39.4271 26.0141 39.2936 26.1476C39.1601 26.2811 38.9791 26.3561 38.7903 26.3561H30.1297C29.9409 26.3561 29.7599 26.2811 29.6264 26.1476C29.4928 26.0141 29.4178 25.8331 29.4178 25.6443C29.4178 25.4555 29.4928 25.2744 29.6264 25.1409C29.7599 25.0074 29.9409 24.9324 30.1297 24.9324H38.7903C38.9791 24.9324 39.1601 25.0074 39.2936 25.1409C39.4271 25.2744 39.5021 25.4555 39.5021 25.6443ZM39.5021 28.4875C39.5021 28.6763 39.4271 28.8573 39.2936 28.9908C39.1601 29.1243 38.9791 29.1993 38.7903 29.1993H30.1297C29.9409 29.1993 29.7599 29.1243 29.6264 28.9908C29.4928 28.8573 29.4178 28.6763 29.4178 28.4875C29.4178 28.2987 29.4928 28.1176 29.6264 27.9841C29.7599 27.8506 29.9409 27.7756 30.1297 27.7756H38.7903C38.9791 27.7756 39.1601 27.8506 39.2936 27.9841C39.4271 28.1176 39.5021 28.2987 39.5021 28.4875ZM13.2328 21.1866V18.4245H15.9949C16.1837 18.4245 16.3648 18.3495 16.4983 18.216C16.6318 18.0825 16.7068 17.9015 16.7068 17.7127V14.4708C16.7068 14.282 16.6318 14.101 16.4983 13.9675C16.3648 13.834 16.1837 13.759 15.9949 13.759H13.2328V10.9964C13.2328 10.8076 13.1578 10.6266 13.0243 10.4931C12.8908 10.3596 12.7098 10.2846 12.521 10.2846H9.28152C9.09272 10.2846 8.91165 10.3596 8.77815 10.4931C8.64465 10.6266 8.56965 10.8076 8.56965 10.9964V13.759H5.80761C5.61881 13.759 5.43774 13.834 5.30424 13.9675C5.17074 14.101 5.09574 14.282 5.09574 14.4708V17.7127C5.09574 17.9015 5.17074 18.0825 5.30424 18.216C5.43774 18.3495 5.61881 18.4245 5.80761 18.4245H8.56965V21.1866C8.56965 21.3754 8.64465 21.5564 8.77815 21.6899C8.91165 21.8234 9.09272 21.8984 9.28152 21.8984H12.5234C12.7117 21.8978 12.8922 21.8225 13.0252 21.6891C13.1582 21.5557 13.2329 21.375 13.2328 21.1866ZM11.8091 17.7127V20.4747H9.99338V17.7127C9.99338 17.5239 9.91838 17.3428 9.78488 17.2093C9.65138 17.0758 9.47031 17.0008 9.28152 17.0008H6.51947V15.1827H9.28152C9.47031 15.1827 9.65138 15.1077 9.78488 14.9742C9.91838 14.8407 9.99338 14.6596 9.99338 14.4708V11.7083H11.8115V14.4708C11.8115 14.6596 11.8865 14.8407 12.02 14.9742C12.1535 15.1077 12.3346 15.1827 12.5234 15.1827H15.2854V17.0008H12.5234C12.4297 17.0005 12.3368 17.0187 12.2502 17.0543C12.1636 17.0899 12.0848 17.1423 12.0185 17.2085C11.9521 17.2746 11.8995 17.3532 11.8635 17.4397C11.8276 17.5262 11.8091 17.619 11.8091 17.7127ZM24.926 41.1317C24.926 41.3205 24.851 41.5015 24.7175 41.635C24.584 41.7685 24.4029 41.8435 24.2141 41.8435H19.7863C19.5975 41.8435 19.4164 41.7685 19.2829 41.635C19.1494 41.5015 19.0744 41.3205 19.0744 41.1317C19.0744 40.9429 19.1494 40.7618 19.2829 40.6283C19.4164 40.4948 19.5975 40.4198 19.7863 40.4198H24.2141C24.4029 40.4198 24.584 40.4948 24.7175 40.6283C24.851 40.7618 24.926 40.9429 24.926 41.1317Z" fill="#293754"/>
</svg>
