<svg width="32" height="32" viewBox="0 0 32 32" fill="none" xmlns="http://www.w3.org/2000/svg">
<path d="M16.0267 7.33301C14.9214 7.33301 14.02 6.43834 14.02 5.33301C14.02 4.22767 14.9093 3.33301 16.0133 3.33301H16.0267C17.132 3.33301 18.0267 4.22767 18.0267 5.33301C18.0267 6.43834 17.132 7.33301 16.0267 7.33301ZM18.0267 15.9997C18.0267 14.8943 17.132 13.9997 16.0267 13.9997H16.0133C14.9093 13.9997 14.02 14.8943 14.02 15.9997C14.02 17.105 14.9214 17.9997 16.0267 17.9997C17.132 17.9997 18.0267 17.105 18.0267 15.9997ZM18.0267 26.6663C18.0267 25.561 17.132 24.6663 16.0267 24.6663H16.0133C14.9093 24.6663 14.02 25.561 14.02 26.6663C14.02 27.7717 14.9214 28.6663 16.0267 28.6663C17.132 28.6663 18.0267 27.7717 18.0267 26.6663Z" fill="white"/>
</svg>
