<svg width="42" height="42" viewBox="0 0 42 42" fill="none" xmlns="http://www.w3.org/2000/svg">
<path d="M10.5 0C9.05625 0 7.875 1.18125 7.875 2.625V39.375C7.875 40.8187 9.05625 42 10.5 42H36.75C38.1938 42 39.375 40.8187 39.375 39.375V10.5L28.875 0H10.5Z" fill="#E2E5E7"/>
<path d="M31.5 10.5H39.375L28.875 0V7.875C28.875 9.31875 30.0562 10.5 31.5 10.5Z" fill="#B0B7BD"/>
<path d="M39.375 18.375L31.5 10.5H39.375V18.375Z" fill="#CAD1D8"/>
<path d="M34.125 34.125C34.125 34.8469 33.5344 35.4375 32.8125 35.4375H3.9375C3.21562 35.4375 2.625 34.8469 2.625 34.125V21C2.625 20.2781 3.21562 19.6875 3.9375 19.6875H32.8125C33.5344 19.6875 34.125 20.2781 34.125 21V34.125Z" fill="#F15642"/>
<path d="M8.34375 24.8651C8.34375 24.5186 8.61675 24.1406 9.05644 24.1406H11.4806C12.8456 24.1406 14.0741 25.0541 14.0741 26.805C14.0741 28.464 12.8456 29.388 11.4806 29.388H9.72844V30.774C9.72844 31.236 9.43444 31.4972 9.05644 31.4972C8.70994 31.4972 8.34375 31.236 8.34375 30.774V24.8651ZM9.72844 25.4623V28.0768H11.4806C12.1841 28.0768 12.7406 27.456 12.7406 26.805C12.7406 26.0713 12.1841 25.4623 11.4806 25.4623H9.72844Z" fill="white"/>
<path d="M16.1308 31.4964C15.7843 31.4964 15.4062 31.3074 15.4062 30.8468V24.8854C15.4062 24.5087 15.7843 24.2344 16.1308 24.2344H18.5339C23.3298 24.2344 23.2248 31.4964 18.6284 31.4964H16.1308ZM16.7922 25.5154V30.2168H18.5339C21.3676 30.2168 21.4936 25.5154 18.5339 25.5154H16.7922Z" fill="white"/>
<path d="M24.9276 25.6007V27.2689H27.6038C27.9818 27.2689 28.3598 27.6469 28.3598 28.0131C28.3598 28.3596 27.9818 28.6431 27.6038 28.6431H24.9276V30.8468C24.9276 31.2143 24.6664 31.4964 24.2989 31.4964C23.8369 31.4964 23.5547 31.2143 23.5547 30.8468V24.8854C23.5547 24.5087 23.8382 24.2344 24.2989 24.2344H27.9831C28.4451 24.2344 28.7181 24.5087 28.7181 24.8854C28.7181 25.2214 28.4451 25.5994 27.9831 25.5994H24.9276V25.6007Z" fill="white"/>
<path d="M32.8125 35.4375H7.875V36.75H32.8125C33.5344 36.75 34.125 36.1594 34.125 35.4375V34.125C34.125 34.8469 33.5344 35.4375 32.8125 35.4375Z" fill="#CAD1D8"/>
</svg>
