<svg width="20" height="21" viewBox="0 0 20 21" fill="none" xmlns="http://www.w3.org/2000/svg">
<g id="plus 1">
<g id="Group">
<path id="Vector" d="M17.5286 9.74748H10.7519V2.97074C10.7519 2.55492 10.4148 2.21777 9.99893 2.21777C9.58311 2.21777 9.24596 2.55492 9.24596 2.97074V9.74748H2.46922C2.05339 9.74748 1.71625 10.0846 1.71625 10.5005C1.71625 10.9163 2.05339 11.2534 2.46922 11.2534H9.24596V18.0302C9.24596 18.446 9.58311 18.7831 9.99893 18.7831C10.4148 18.7831 10.7519 18.446 10.7519 18.0302V11.2534H17.5286C17.9445 11.2534 18.2816 10.9163 18.2816 10.5005C18.2816 10.0846 17.9445 9.74748 17.5286 9.74748Z" fill="white"/>
</g>
</g>
</svg>
