<svg width="101" height="101" viewBox="0 0 101 101" fill="none" xmlns="http://www.w3.org/2000/svg">
    <g clip-path="url(#clip0_210_2653)">
        <path
            d="M50.5 100.5C78.1142 100.5 100.5 78.1142 100.5 50.5C100.5 22.8858 78.1142 0.5 50.5 0.5C22.8858 0.5 0.5 22.8858 0.5 50.5C0.5 78.1142 22.8858 100.5 50.5 100.5Z"
            fill="#46CC6B" />
        <path fill-rule="evenodd" clip-rule="evenodd"
            d="M93.4342 76.1C96.0901 71.6642 98.0394 66.842 99.2121 61.8066L72.1783 30.8125L73.0998 31.876L73.9703 32.983L74.7879 34.132L75.5508 35.3207L76.2568 36.5477L76.9049 37.8107L77.4922 39.108L78.0174 40.4379L78.4787 41.7984L78.8742 43.1877L79.2018 44.6039L79.46 46.0451L79.6465 47.51L79.7598 48.9961L79.798 50.5L79.76 52.0055L79.6467 53.4912L79.46 54.9561L79.202 56.3973L78.8742 57.8135L78.4789 59.2027L78.2428 59.8992L61.9961 42.5736L61.9375 42.5119L61.876 42.4533L61.8123 42.3986L61.7465 42.3477L61.6787 42.3004L61.6092 42.257L61.5381 42.218L61.4656 42.182L61.3918 42.15L61.3166 42.1217L61.2406 42.0973L61.1637 42.0766L61.0855 42.0594L61.0074 42.0463L60.9293 42.0369L60.8512 42.0311L60.7719 42.0293L60.6937 42.0311L60.6156 42.0369L60.5375 42.0461L60.4594 42.0594L60.3812 42.0764L60.3043 42.0971L60.2281 42.1217L60.1531 42.15L60.0793 42.182L60.0068 42.2178L59.9357 42.2568L59.8664 42.3002L59.7986 42.3475L59.733 42.3984L59.6693 42.4531L59.6078 42.5117L47.2055 54.9141L41.3984 49.2559L41.3369 49.1973L41.273 49.1426L41.207 49.0916L41.1393 49.0445L41.0697 49.0012L40.9986 48.9621L40.926 48.9262L40.8521 48.8941L40.777 48.8656L40.701 48.8412L40.624 48.8205L40.5459 48.8035L40.4678 48.7902L40.3896 48.7809L40.3115 48.7752L40.2324 48.7734L40.1533 48.7752L40.0742 48.7809L39.9961 48.7902L39.918 48.8035L39.8398 48.8205L39.7629 48.8412L39.6869 48.8656L39.6117 48.8939L39.5381 48.926L39.4654 48.9619L39.3945 49.001L39.325 49.0443L39.2574 49.0914L39.1916 49.1424L39.1279 49.1971L39.0664 49.2557L39.0078 49.3174L38.9529 49.3813L38.902 49.4471L38.8545 49.5148L38.8111 49.5844L38.7721 49.6557L38.7359 49.7281L38.7039 49.8021L38.6756 49.8771L38.651 49.9533L38.6301 50.0303L38.6131 50.1084L38.6 50.1865L38.5904 50.2646L38.585 50.3438L38.583 50.4229L38.585 50.5021L38.5904 50.5803L38.6 50.6584L38.6133 50.7365L38.6305 50.8146L38.6512 50.8914L38.676 50.9676L38.7043 51.0428L38.7365 51.1166L38.7725 51.1893L38.8115 51.2605L38.8553 51.3303L38.9025 51.3979L38.9535 51.4639L39.0084 51.5277L39.067 51.5895L45.9621 58.4883L64.4713 76.2459L64.4545 76.2555L63.1916 76.9033L61.8941 77.4908L60.5643 78.0162L59.2037 78.4773L57.8143 78.8727L56.398 79.2004L54.9568 79.4584L53.492 79.6451L52.0062 79.7586L50.5012 79.7969L48.9959 79.7588L47.51 79.6453L46.0451 79.4586L44.6039 79.2006L43.1877 78.8729L41.7984 78.4773L40.4379 78.016L39.108 77.4908L37.8107 76.9033L36.5477 76.2555L35.3209 75.5492L34.132 74.7865L32.9832 73.9689L31.876 73.0984L30.8125 72.177L61.808 99.2109C68.3031 97.6976 74.4285 94.8965 79.8217 90.9734L79.9662 90.868C80.3641 90.5768 80.7577 90.2802 81.1469 89.9781C81.5212 89.687 81.8917 89.3912 82.2584 89.0906C86.2932 85.7651 89.786 81.8321 92.6115 77.4326C92.8936 76.9934 93.166 76.548 93.4342 76.1Z"
            fill="#179C5F" />
        <path fill-rule="evenodd" clip-rule="evenodd"
            d="M61.9363 42.5117C62.0899 42.6649 62.2117 42.8469 62.2949 43.0473C62.378 43.2477 62.4208 43.4625 62.4208 43.6794C62.4208 43.8963 62.378 44.1111 62.2949 44.3115C62.2117 44.5119 62.0899 44.6939 61.9363 44.8471L48.2951 58.4883C47.9854 58.7975 47.5657 58.9712 47.128 58.9712C46.6904 58.9712 46.2706 58.7975 45.9609 58.4883L39.0646 51.5914C38.9089 51.4388 38.785 51.2568 38.7 51.056C38.615 50.8552 38.5707 50.6395 38.5695 50.4215C38.5684 50.2034 38.6104 49.9873 38.6933 49.7856C38.7761 49.5839 38.8981 49.4006 39.0522 49.2463C39.2063 49.092 39.3894 48.9698 39.591 48.8867C39.7926 48.8036 40.0086 48.7613 40.2267 48.7621C40.4447 48.763 40.6604 48.8071 40.8614 48.8918C41.0623 48.9765 41.2444 49.1002 41.3973 49.2557L47.1271 54.9871L59.6033 42.5117C59.9128 42.2026 60.3324 42.0289 60.7698 42.0289C61.2073 42.0289 61.6268 42.2026 61.9363 42.5117ZM50.5 79.7969C66.6545 79.7969 79.7969 66.6543 79.7969 50.5C79.7969 34.3457 66.6547 21.2031 50.5 21.2031C34.3453 21.2031 21.2031 34.3451 21.2031 50.5C21.2031 66.6549 34.3455 79.7969 50.5 79.7969Z"
            fill="white" />
    </g>
    <defs>
        <clipPath id="clip0_210_2653">
            <rect width="100" height="100" fill="white" transform="translate(0.5 0.5)" />
        </clipPath>
    </defs>
</svg>