<svg width="16" height="16" viewBox="0 0 16 16" fill="none" xmlns="http://www.w3.org/2000/svg">
<g id="fi-sr-caret-right">
<path id="Vector" d="M6 11.9192V4.47121C6.00003 4.33938 6.03914 4.21051 6.1124 4.10091C6.18565 3.9913 6.28976 3.90587 6.41156 3.85543C6.53336 3.80498 6.66738 3.79178 6.79669 3.81749C6.92599 3.8432 7.04476 3.90667 7.138 3.99988L10.862 7.72388C10.987 7.8489 11.0572 8.01844 11.0572 8.19521C11.0572 8.37199 10.987 8.54153 10.862 8.66655L7.138 12.3905C7.04476 12.4838 6.92599 12.5472 6.79669 12.5729C6.66738 12.5986 6.53336 12.5854 6.41156 12.535C6.28976 12.4846 6.18565 12.3991 6.1124 12.2895C6.03914 12.1799 6.00003 12.051 6 11.9192Z" fill="white"/>
</g>
</svg>
