<svg width="447" height="282" viewBox="0 0 447 282" fill="none" xmlns="http://www.w3.org/2000/svg">
<path d="M447 4.5C447 6.70914 445.209 8.5 443 8.5C440.791 8.5 439 6.70914 439 4.5C439 2.29086 440.791 0.5 443 0.5C445.209 0.5 447 2.29086 447 4.5ZM5 281.5L0.669873 274H9.33013L5 281.5ZM443 171.5L443.75 171.5L443.75 172.25H443V171.5ZM5 171.5H4.25V170.75H5V171.5ZM443.75 4.5L443.75 11.4583L442.25 11.4583L442.25 4.5L443.75 4.5ZM443.75 25.375L443.75 39.2917L442.25 39.2917L442.25 25.375L443.75 25.375ZM443.75 53.2083L443.75 67.125L442.25 67.125L442.25 53.2083L443.75 53.2083ZM443.75 81.0417L443.75 94.9583L442.25 94.9583L442.25 81.0417L443.75 81.0417ZM443.75 108.875L443.75 122.792L442.25 122.792L442.25 108.875L443.75 108.875ZM443.75 136.708L443.75 150.625L442.25 150.625L442.25 136.708L443.75 136.708ZM443.75 164.542L443.75 171.5L442.25 171.5L442.25 164.542L443.75 164.542ZM443 172.25H435.7V170.75H443V172.25ZM421.1 172.25H406.5V170.75H421.1V172.25ZM391.9 172.25H377.3V170.75H391.9V172.25ZM362.7 172.25H348.1V170.75H362.7V172.25ZM333.5 172.25H318.9V170.75H333.5V172.25ZM304.3 172.25H289.7V170.75H304.3V172.25ZM275.1 172.25H260.5V170.75H275.1V172.25ZM245.9 172.25H231.3V170.75H245.9V172.25ZM216.7 172.25H202.1V170.75H216.7V172.25ZM187.5 172.25H172.9V170.75H187.5V172.25ZM158.3 172.25H143.7V170.75H158.3V172.25ZM129.1 172.25H114.5V170.75H129.1V172.25ZM99.8999 172.25H85.2999V170.75H99.8999V172.25ZM70.6999 172.25H56.0999V170.75H70.6999V172.25ZM41.4999 172.25H26.8999V170.75H41.4999V172.25ZM12.2999 172.25H5V170.75H12.2999V172.25ZM5.75 171.5V178.375H4.25V171.5H5.75ZM5.75 192.125V205.875H4.25V192.125H5.75ZM5.75 219.625V233.375H4.25V219.625H5.75ZM5.75 247.125V260.875H4.25V247.125H5.75ZM5.75 274.625V274.75H4.25V274.625H5.75Z" fill="#293754"/>
</svg>
