<svg width="100" height="184" viewBox="0 0 100 184" fill="none" xmlns="http://www.w3.org/2000/svg">
<path d="M96.9784 0.81241C97.7141 0.431593 98.6193 0.71929 99.0001 1.455C99.3809 2.19071 99.0932 3.09583 98.3575 3.47665L96.9784 0.81241ZM56.9941 37.6343L55.7449 36.804L56.9941 37.6343ZM49.07 75.5897L50.4696 75.0501L49.07 75.5897ZM55.313 83.4444L54.7013 84.814L54.5229 84.7343L54.3709 84.6116L55.313 83.4444ZM74.3115 80.9856L73.5129 79.7158L73.5129 79.7158L74.3115 80.9856ZM85.6478 66.0863L87.0551 66.6054L87.0551 66.6054L85.6478 66.0863ZM84.9937 46.5163L83.6355 47.1531L83.6088 47.096L83.5869 47.0368L84.9937 46.5163ZM48.6117 56.5365L47.7466 55.3111L47.7466 55.3111L48.6117 56.5365ZM18.9104 94.8544L20.2533 95.5228L18.9104 94.8544ZM8.56491 147.477L10.0645 147.514L8.56491 147.477ZM13.6692 178.137L12.1825 178.336L13.6692 178.137ZM16.0834 182.417C15.7787 183.187 14.9073 183.564 14.1369 183.26L1.58302 178.295C0.812652 177.99 0.435131 177.119 0.739803 176.348C1.04447 175.578 1.91597 175.2 2.68633 175.505L13.8453 179.918L18.2586 168.759C18.5633 167.989 19.4347 167.611 20.2051 167.916C20.9755 168.221 21.353 169.092 21.0483 169.863L16.0834 182.417ZM98.3575 3.47665C92.9483 6.27657 84.6329 12.4284 76.7542 19.2456C68.8666 26.0704 61.6156 33.3908 58.2434 38.4646L55.7449 36.804C59.3562 31.3703 66.8725 23.8287 74.7912 16.977C82.7187 10.1176 91.2485 3.77835 96.9784 0.81241L98.3575 3.47665ZM58.2434 38.4646C55.1816 43.0715 52.2071 49.6491 50.5254 56.4141C48.8349 63.2151 48.5098 69.9671 50.4696 75.0501L47.6704 76.1293C45.3868 70.2063 45.8623 62.7373 47.614 55.6904C49.3746 48.6077 52.4839 41.7106 55.7449 36.804L58.2434 38.4646ZM50.4696 75.0501C50.9431 76.2783 51.4442 77.2997 52.2684 78.3862C53.1044 79.4882 54.313 80.7095 56.2552 82.2772L54.3709 84.6116C52.3189 82.9552 50.9121 81.5621 49.8783 80.1993C48.8327 78.821 48.2094 77.5271 47.6704 76.1293L50.4696 75.0501ZM55.9248 82.0748C59.2142 83.544 62.1043 83.8602 64.8759 83.3939C67.6829 82.9216 70.4695 81.63 73.5129 79.7158L75.1101 82.2553C71.9095 84.2683 68.7356 85.7867 65.3737 86.3523C61.9764 86.9239 58.4893 86.5059 54.7013 84.814L55.9248 82.0748ZM73.5129 79.7158C79.1151 76.1923 81.8274 72.1094 84.2405 65.5672L87.0551 66.6054C84.4851 73.5731 81.4266 78.2826 75.1101 82.2553L73.5129 79.7158ZM84.2405 65.5672C86.4287 59.6344 86.3456 52.9334 83.6355 47.1531L86.3518 45.8796C89.4299 52.4449 89.4978 59.9828 87.0551 66.6054L84.2405 65.5672ZM83.5869 47.0368C83.202 45.9966 82.5738 45.3613 81.7456 44.9708C80.8698 44.5578 79.6778 44.3787 78.1613 44.4754C75.1113 44.6699 71.232 45.9437 67.2133 47.7198C59.2184 51.2533 51.2532 56.5077 49.4769 57.7618L47.7466 55.3111C49.6075 53.9972 57.7537 48.6208 66.0006 44.9759C70.1029 43.1628 74.3771 41.7106 77.9704 41.4815C79.7754 41.3663 81.5275 41.551 83.0252 42.2574C84.5707 42.9861 85.7456 44.2257 86.4005 45.9958L83.5869 47.0368ZM49.4769 57.7618C35.5231 67.614 27.808 80.3444 20.2533 95.5228L17.5675 94.186C25.18 78.8917 33.1667 65.6053 47.7466 55.3111L49.4769 57.7618ZM20.2533 95.5228C12.0131 112.078 10.5234 128.599 10.0645 147.514L7.06535 147.441C7.52632 128.442 9.01894 111.361 17.5675 94.186L20.2533 95.5228ZM10.0645 147.514C9.9402 152.635 10.8342 157.562 11.9623 162.575C13.0792 167.538 14.4489 172.667 15.1559 177.937L12.1825 178.336C11.4989 173.24 10.1875 168.352 9.03548 163.233C7.89469 158.164 6.93183 152.944 7.06535 147.441L10.0645 147.514ZM15.1559 177.937C15.3525 179.402 15.5406 180.058 16.065 181.269L13.3121 182.461C12.674 180.988 12.4144 180.064 12.1825 178.336L15.1559 177.937Z" fill="#293754"/>
</svg>
