<svg width="223" height="194" viewBox="0 0 223 194" fill="none" xmlns="http://www.w3.org/2000/svg">
<path fill-rule="evenodd" clip-rule="evenodd" d="M0 0H222.092V193.99H0V0ZM0.347018 0.346411H27.4144V27.3665H0.347018V0.346411ZM28.1085 0.346411H55.1759V27.3665H28.1085V0.346411ZM82.9373 0.346411H55.8699V27.3665H82.9373V0.346411ZM83.6314 0.346411H110.699V27.3665H83.6314V0.346411ZM138.46 0.346411H111.393V27.3665H138.46V0.346411ZM139.154 0.346411H166.222V27.3665H139.154V0.346411ZM193.983 0.346411H166.916V27.3665H193.983V0.346411ZM194.677 0.346411H221.745V27.3665H194.677V0.346411ZM27.4144 28.0593H0.347018V55.0794H27.4144V28.0593ZM28.1085 28.0593H55.1759V55.0794H28.1085V28.0593ZM82.9373 28.0593H55.8699V55.0794H82.9373V28.0593ZM83.6314 28.0593H110.699V55.0794H83.6314V28.0593ZM138.46 28.0593H111.393V55.0794H138.46V28.0593ZM139.154 28.0593H166.222V55.0794H139.154V28.0593ZM193.983 28.0593H166.916V55.0794H193.983V28.0593ZM194.677 28.0593H221.745V55.0794H194.677V28.0593ZM27.4144 55.7722H0.347018V82.7923H27.4144V55.7722ZM28.1085 55.7722H55.1759V82.7923H28.1085V55.7722ZM82.9373 55.7722H55.8699V82.7923H82.9373V55.7722ZM83.6314 55.7722H110.699V82.7923H83.6314V55.7722ZM138.46 55.7722H111.393V82.7923H138.46V55.7722ZM139.154 55.7722H166.222V82.7923H139.154V55.7722ZM193.983 55.7722H166.916V82.7923H193.983V55.7722ZM194.677 55.7722H221.745V82.7923H194.677V55.7722ZM27.4144 83.4851H0.347018V110.505H27.4144V83.4851ZM28.1085 83.4851H55.1759V110.505H28.1085V83.4851ZM82.9373 83.4851H55.8699V110.505H82.9373V83.4851ZM83.6314 83.4851H110.699V110.505H83.6314V83.4851ZM138.46 83.4851H111.393V110.505H138.46V83.4851ZM139.154 83.4851H166.222V110.505H139.154V83.4851ZM193.983 83.4851H166.916V110.505H193.983V83.4851ZM194.677 83.4851H221.745V110.505H194.677V83.4851ZM27.4144 111.198H0.347018V138.218H27.4144V111.198ZM28.1085 111.198H55.1759V138.218H28.1085V111.198ZM82.9373 111.198H55.8699V138.218H82.9373V111.198ZM83.6314 111.198H110.699V138.218H83.6314V111.198ZM138.46 111.198H111.393V138.218H138.46V111.198ZM139.154 111.198H166.222V138.218H139.154V111.198ZM193.983 111.198H166.916V138.218H193.983V111.198ZM194.677 111.198H221.745V138.218H194.677V111.198ZM27.4144 138.911H0.347018V165.931H27.4144V138.911ZM28.1085 138.911H55.1759V165.931H28.1085V138.911ZM82.9373 138.911H55.8699V165.931H82.9373V138.911ZM83.6314 138.911H110.699V165.931H83.6314V138.911ZM138.46 138.911H111.393V165.931H138.46V138.911ZM139.154 138.911H166.222V165.931H139.154V138.911ZM193.983 138.911H166.916V165.931H193.983V138.911ZM194.677 138.911H221.745V165.931H194.677V138.911ZM27.4144 166.624H0.347018V193.644H27.4144V166.624ZM28.1085 166.624H55.1759V193.644H28.1085V166.624ZM82.9373 166.624H55.8699V193.644H82.9373V166.624ZM83.6314 166.624H110.699V193.644H83.6314V166.624ZM138.46 166.624H111.393V193.644H138.46V166.624ZM139.154 166.624H166.222V193.644H139.154V166.624ZM193.983 166.624H166.916V193.644H193.983V166.624ZM194.677 166.624H221.745V193.644H194.677V166.624Z" fill="url(#paint0_linear_210_5617)"/>
<defs>
<linearGradient id="paint0_linear_210_5617" x1="7.12418" y1="4.93644e-06" x2="222.09" y2="198.703" gradientUnits="userSpaceOnUse">
<stop stop-color="white" stop-opacity="0.5"/>
<stop offset="0.513197" stop-color="#D9D9D9" stop-opacity="0"/>
</linearGradient>
</defs>
</svg>
