<svg width="223" height="194" viewBox="0 0 223 194" fill="none" xmlns="http://www.w3.org/2000/svg">
<path fill-rule="evenodd" clip-rule="evenodd" d="M223 194H0.908356V0.00976562H223V194ZM222.653 193.654H195.586V166.634H222.653V193.654ZM194.892 193.654H167.824V166.634H194.892V193.654ZM140.063 193.654H167.13V166.634H140.063V193.654ZM139.369 193.654H112.301V166.634H139.369V193.654ZM84.5397 193.654H111.607V166.634H84.5397V193.654ZM83.8457 193.654H56.7783V166.634H83.8457V193.654ZM29.0168 193.654H56.0843V166.634H29.0168V193.654ZM28.3228 193.654H1.25539V166.634H28.3228V193.654ZM195.586 165.941H222.653V138.921H195.586V165.941ZM194.892 165.941H167.824V138.921H194.892V165.941ZM140.063 165.941H167.13V138.921H140.063V165.941ZM139.369 165.941H112.301V138.921H139.369V165.941ZM84.5397 165.941H111.607V138.921H84.5397V165.941ZM83.8457 165.941H56.7783V138.921H83.8457V165.941ZM29.0168 165.941H56.0843V138.921H29.0168V165.941ZM28.3228 165.941H1.25539V138.921H28.3228V165.941ZM195.586 138.228H222.653V111.208H195.586V138.228ZM194.892 138.228H167.824V111.208H194.892V138.228ZM140.063 138.228H167.13V111.208H140.063V138.228ZM139.369 138.228H112.301V111.208H139.369V138.228ZM84.5397 138.228H111.607V111.208H84.5397V138.228ZM83.8457 138.228H56.7783V111.208H83.8457V138.228ZM29.0168 138.228H56.0843V111.208H29.0168V138.228ZM28.3228 138.228H1.25539V111.208H28.3228V138.228ZM195.586 110.515H222.653V83.4949H195.586V110.515ZM194.892 110.515H167.824V83.4949H194.892V110.515ZM140.063 110.515H167.13V83.4949H140.063V110.515ZM139.369 110.515H112.301V83.4949H139.369V110.515ZM84.5397 110.515H111.607V83.4949H84.5397V110.515ZM83.8457 110.515H56.7783V83.4949H83.8457V110.515ZM29.0168 110.515H56.0843V83.4949H29.0168V110.515ZM28.3228 110.515H1.25539V83.4949H28.3228V110.515ZM195.586 82.802H222.653V55.782H195.586V82.802ZM194.892 82.802H167.824V55.782H194.892V82.802ZM140.063 82.802H167.13V55.782H140.063V82.802ZM139.369 82.802H112.301V55.782H139.369V82.802ZM84.5397 82.802H111.607V55.782H84.5397V82.802ZM83.8457 82.802H56.7783V55.782H83.8457V82.802ZM29.0168 82.802H56.0843V55.782H29.0168V82.802ZM28.3228 82.802H1.25539V55.782H28.3228V82.802ZM195.586 55.0891H222.653V28.0691H195.586V55.0891ZM194.892 55.0891H167.824V28.0691H194.892V55.0891ZM140.063 55.0891H167.13V28.0691H140.063V55.0891ZM139.369 55.0891H112.301V28.0691H139.369V55.0891ZM84.5397 55.0891H111.607V28.0691H84.5397V55.0891ZM83.8457 55.0891H56.7783V28.0691H83.8457V55.0891ZM29.0168 55.0891H56.0843V28.0691H29.0168V55.0891ZM28.3228 55.0891H1.25539V28.0691H28.3228V55.0891ZM195.586 27.3762H222.653V0.356171H195.586V27.3762ZM194.892 27.3762H167.824V0.356171H194.892V27.3762ZM140.063 27.3762H167.13V0.356171H140.063V27.3762ZM139.369 27.3762H112.301V0.356171H139.369V27.3762ZM84.5397 27.3762H111.607V0.356171H84.5397V27.3762ZM83.8457 27.3762H56.7783V0.356171H83.8457V27.3762ZM29.0168 27.3762H56.0843V0.356171H29.0168V27.3762ZM28.3228 27.3762H1.25539V0.356171H28.3228V27.3762Z" fill="url(#paint0_linear_210_5610)"/>
<defs>
<linearGradient id="paint0_linear_210_5610" x1="215.876" y1="194" x2="0.910156" y2="-4.70281" gradientUnits="userSpaceOnUse">
<stop stop-color="white" stop-opacity="0.5"/>
<stop offset="0.513197" stop-color="#D9D9D9" stop-opacity="0"/>
</linearGradient>
</defs>
</svg>
