<svg width="673" height="185" viewBox="0 0 673 185" fill="none" xmlns="http://www.w3.org/2000/svg">
<path opacity="0.06" d="M53.312 83.1337C82.1266 80.0515 107.205 64.9348 131.672 47.4061C155.22 30.5226 178.867 12.4655 206.108 5.19844C262.272 -9.78806 317.837 17.3702 361.471 51.5537C410.233 89.7671 452.691 140.072 509.229 165.018C536.961 177.251 568.601 181.835 598.151 169.277C622.632 158.868 639.597 137.324 650.653 111.231C656.932 96.4041 661.501 80.9336 665.885 65.3894L672.213 66.8615C670.973 71.2661 669.733 75.6708 668.423 80.0285C660.867 105.387 651.568 131.398 634.456 151.143C615.009 173.567 587.312 184.24 560.628 184.244C528.066 184.262 497.626 169.942 470.729 151.921C444.81 134.558 421.426 113.137 397.934 92.1207C353.094 51.9974 302.774 10.1702 241.55 8.44312C227.224 8.04004 212.753 10.0571 198.839 15.0104C185.09 19.8945 172.226 27.5154 159.808 35.9454C135.501 52.4378 112.385 72.2132 85.514 82.6953C57.7223 93.5459 27.1732 94.062 0.152543 84.2183C0.11419 84.2094 0.0792224 84.1859 0.0280852 84.174L1.74406 76.7973C18.0741 82.8352 35.6665 85.0104 53.312 83.1337Z" fill="white"/>
</svg>
