<svg width="52" height="52" viewBox="0 0 52 52" fill="none" xmlns="http://www.w3.org/2000/svg">
<path d="M51.1875 20.8333C51.1875 16.9144 48.0022 13.7292 44.0833 13.7292C40.1644 13.7292 36.9792 16.9144 36.9792 20.8333C36.9792 24.0754 39.1724 26.7855 42.1458 27.6354V35.0417C42.1458 41.8074 36.6407 47.3125 29.875 47.3125C23.1092 47.3125 17.6042 41.8074 17.6042 35.0417V32.9389C25.3903 32.1174 30.5208 26.4624 30.5208 18.25V6.625C30.5208 2.98508 28.3482 0.8125 24.7083 0.8125H23.4167C22.3472 0.8125 21.4792 1.6805 21.4792 2.75C21.4792 3.8195 22.3472 4.6875 23.4167 4.6875H24.7083C26.2299 4.6875 26.6458 5.10342 26.6458 6.625V18.25C26.6458 24.9202 22.3368 29.2292 15.6667 29.2292C8.9965 29.2292 4.6875 24.9202 4.6875 18.25V6.625C4.6875 5.10342 5.10342 4.6875 6.625 4.6875H7.91667C8.98617 4.6875 9.85417 3.8195 9.85417 2.75C9.85417 1.6805 8.98617 0.8125 7.91667 0.8125H6.625C2.98508 0.8125 0.8125 2.98508 0.8125 6.625V18.25C0.8125 26.4598 5.943 32.1174 13.7292 32.9389V35.0417C13.7292 43.9438 20.9728 51.1875 29.875 51.1875C38.7772 51.1875 46.0208 43.9438 46.0208 35.0417V27.6354C48.9942 26.7855 51.1875 24.0754 51.1875 20.8333ZM44.0833 24.0625C42.3034 24.0625 40.8542 22.6132 40.8542 20.8333C40.8542 19.0534 42.3034 17.6042 44.0833 17.6042C45.8632 17.6042 47.3125 19.0534 47.3125 20.8333C47.3125 22.6132 45.8632 24.0625 44.0833 24.0625Z" fill="#25314C"/>
</svg>
