<svg width="16" height="51" viewBox="0 0 16 51" fill="none" xmlns="http://www.w3.org/2000/svg">
<path d="M7.29289 50.7071C7.68342 51.0976 8.31658 51.0976 8.70711 50.7071L15.0711 44.3431C15.4616 43.9526 15.4616 43.3195 15.0711 42.9289C14.6805 42.5384 14.0474 42.5384 13.6569 42.9289L8 48.5858L2.34315 42.9289C1.95262 42.5384 1.31946 42.5384 0.928932 42.9289C0.538408 43.3195 0.538408 43.9526 0.928932 44.3431L7.29289 50.7071ZM7 0V3.125H9V0L7 0ZM7 9.375V15.625H9L9 9.375H7ZM7 21.875V28.125H9V21.875H7ZM7 34.375V40.625H9L9 34.375H7ZM7 46.875V50H9V46.875H7Z" fill="#293754"/>
</svg>
