<svg width="10" height="314" viewBox="0 0 10 314" fill="none" xmlns="http://www.w3.org/2000/svg">
<path d="M5 0C2.79086 -9.65645e-08 1 1.79086 1 4C1 6.20914 2.79086 8 5 8C7.20914 8 9 6.20914 9 4C9 1.79086 7.20914 9.65645e-08 5 0ZM4.99999 314L9.33011 306.5L0.66986 306.5L4.99999 314ZM4.25 4L4.25 11.75L5.75 11.75L5.75 4L4.25 4ZM4.25 27.25L4.25 42.75L5.75 42.75L5.75 27.25L4.25 27.25ZM4.25 58.25L4.25 73.75L5.75 73.75L5.75 58.25L4.25 58.25ZM4.25 89.25L4.25 104.75L5.75 104.75L5.75 89.25L4.25 89.25ZM4.24999 120.25L4.24999 135.75L5.74999 135.75L5.74999 120.25L4.24999 120.25ZM4.24999 151.25L4.24999 166.75L5.74999 166.75L5.74999 151.25L4.24999 151.25ZM4.24999 182.25L4.24999 197.75L5.74999 197.75L5.74999 182.25L4.24999 182.25ZM4.24999 213.25L4.24999 228.75L5.74999 228.75L5.74999 213.25L4.24999 213.25ZM4.24999 244.25L4.24999 259.75L5.74999 259.75L5.74999 244.25L4.24999 244.25ZM4.24999 275.25L4.24999 290.75L5.74999 290.75L5.74999 275.25L4.24999 275.25ZM4.24999 306.25L4.24999 307.25L5.74999 307.25L5.74999 306.25L4.24999 306.25Z" fill="#293754"/>
</svg>
