<svg width="15" height="15" viewBox="0 0 15 15" fill="none" xmlns="http://www.w3.org/2000/svg">
<path d="M3.47421 5.3385H0.45183V14.1895H3.47421V5.3385Z" fill="white"/>
<path d="M2.96609 1.20792C2.67804 1.0335 2.33952 0.940417 1.99324 0.940412C1.76219 0.940408 1.53341 0.981861 1.32007 1.06239C1.10673 1.14291 0.913035 1.26092 0.750124 1.40963C0.587212 1.55834 0.458299 1.73481 0.370799 1.92889C0.283298 2.12298 0.238935 2.33085 0.240263 2.54055C0.242254 2.85482 0.346753 3.16152 0.540579 3.42195C0.734404 3.68238 1.00887 3.88488 1.32936 4.0039C1.64984 4.12291 2.00199 4.15312 2.34137 4.0907C2.68074 4.02828 2.99215 3.87604 3.2363 3.65318C3.48046 3.43031 3.64641 3.14681 3.71324 2.83844C3.78007 2.53007 3.74477 2.21065 3.6118 1.92046C3.47883 1.63028 3.25414 1.38234 2.96609 1.20792Z" fill="white"/>
<path d="M8.3257 5.33805H5.41414L5.40407 14.2074H8.42645V9.82757C8.42645 8.67547 8.66824 7.55995 10.2399 7.55995C11.8115 7.55995 11.8115 8.88578 11.8115 9.90986V14.1891H14.8339V9.33382C14.8339 6.94733 14.2193 5.1186 11.197 5.1186C10.6209 5.09814 10.0496 5.22002 9.54387 5.47124C9.03819 5.72246 8.61715 6.09359 8.3257 6.54501V5.33805Z" fill="white"/>
</svg>
