<svg width="49" height="36" viewBox="0 0 49 36" fill="none" xmlns="http://www.w3.org/2000/svg">
<path d="M38.0055 35.4631H30.2474H28.1584H27.7072V25.0569H31.1105C31.9736 25.0569 32.4837 24.0761 31.9736 23.37L25.3533 14.2094C24.9315 13.6209 24.0586 13.6209 23.6369 14.2094L17.0166 23.37C16.5065 24.0761 17.0067 25.0569 17.8796 25.0569H21.283V35.4631H20.8318H18.7427H9.74888C4.59971 35.1787 0.5 30.363 0.5 25.1452C0.5 21.5457 2.45178 18.4072 5.34512 16.7104C5.0803 15.9944 4.94299 15.2294 4.94299 14.4251C4.94299 10.7472 7.91479 7.77536 11.5928 7.77536C12.3872 7.77536 13.1522 7.91267 13.8682 8.17748C15.9965 3.66584 20.5866 0.537109 25.9221 0.537109C32.8269 0.546917 38.5155 5.83339 39.1629 12.5714C44.4689 13.4836 48.5 18.3973 48.5 23.9584C48.5 29.902 43.8707 35.0512 38.0055 35.4631Z" fill="#878787"/>
</svg>
