<svg width="24" height="24" viewBox="0 0 24 24" fill="none" xmlns="http://www.w3.org/2000/svg">
<g id="user (2) 1">
<rect id="Rectangle 34624223" x="2.61328" y="2.61328" width="18.7733" height="18.7733" rx="9.38666" fill="white"/>
<g id="Group">
<g id="Group_2">
<path id="Vector" d="M19.2374 4.759C17.3033 2.82492 14.7318 1.75977 11.9966 1.75977C9.26138 1.75977 6.68991 2.82492 4.75579 4.759C2.82175 6.69308 1.75659 9.26456 1.75659 11.9998C1.75659 14.735 2.82175 17.3064 4.75579 19.2405C6.68991 21.1746 9.26138 22.2397 11.9966 22.2397C14.7318 22.2397 17.3033 21.1746 19.2374 19.2405C21.1714 17.3064 22.2366 14.735 22.2366 11.9998C22.2366 9.26456 21.1714 6.69308 19.2374 4.759ZM11.9966 21.0397C9.32182 21.0397 6.91511 19.8717 5.25851 18.0193C6.28551 15.2966 8.91451 13.3598 11.9966 13.3598C10.0083 13.3598 8.39659 11.748 8.39659 9.75976C8.39659 7.77152 10.0083 6.15976 11.9966 6.15976C13.9848 6.15976 15.5966 7.77152 15.5966 9.75976C15.5966 11.748 13.9848 13.3598 11.9966 13.3598C15.0787 13.3598 17.7077 15.2966 18.7347 18.0193C17.0781 19.8717 14.6713 21.0397 11.9966 21.0397Z" fill="#293754"/>
</g>
</g>
</g>
</svg>
