<svg width="44" height="44" viewBox="0 0 44 44" fill="none" xmlns="http://www.w3.org/2000/svg">
<path d="M43.3134 38.5652L42.2457 35.5482V11.2484C42.2452 10.7811 42.0594 10.3332 41.7291 10.0027C41.3987 9.67232 40.9508 9.48641 40.4836 9.48578H31.5496C31.3766 8.06215 31.1786 6.70215 30.9617 5.49253C30.4196 2.46565 27.7354 -0.473541 24.3456 0.0652718C23.7431 0.187535 23.1496 0.350704 22.5693 0.553645C22.2676 0.650283 21.9641 0.747391 21.6803 0.829887C21.3974 0.747391 21.0929 0.650283 20.7912 0.553645C20.2108 0.350158 19.6172 0.186515 19.0145 0.0638576C15.6223 -0.47307 12.9409 2.46613 12.3988 5.49253C12.182 6.70215 11.984 8.06215 11.811 9.48578H2.87461C2.40738 9.48641 1.95948 9.67232 1.62914 10.0027C1.2988 10.3332 1.11301 10.7811 1.11251 11.2484V35.5468L0.0428976 38.5643C0.0152959 38.6398 0.000788618 38.7195 0 38.8V41.5233C0.000748351 42.1798 0.261866 42.8093 0.726083 43.2736C1.1903 43.7379 1.81971 43.9991 2.47628 44H40.88C41.5366 43.9991 42.166 43.7379 42.6302 43.2736C43.0944 42.8093 43.3556 42.1798 43.3563 41.5233V38.8C43.3554 38.7198 43.3409 38.6405 43.3134 38.5652ZM2.31977 36.3751H41.0408L41.6489 38.0929H1.71166L2.31977 36.3751ZM11.7304 20.6519C14.1656 20.9371 15.9395 19.1807 16.938 17.9748C17.0728 18.0955 17.2123 18.2105 17.3542 18.3213L17.1548 19.9019L11.4094 21.0738C10.5186 21.2585 9.71857 21.744 9.14346 22.4488C8.56835 23.1536 8.25322 24.0348 8.25096 24.9445V29.3922C8.25146 29.9275 8.46434 30.4408 8.84287 30.8193C9.2214 31.1978 9.73465 31.4107 10.27 31.4112H33.0929C33.6283 31.4107 34.1415 31.1978 34.52 30.8193C34.8986 30.4408 35.1115 29.9275 35.1119 29.3922V24.9445C35.1097 24.0348 34.7946 23.1536 34.2195 22.4488C33.6443 21.744 32.8443 21.2585 31.9536 21.0738L26.1921 19.8995L25.9611 18.3566C26.0943 18.2536 26.2248 18.1464 26.3524 18.0351C27.702 19.7793 29.3 20.6873 31.0343 20.6873C31.2335 20.6871 31.4324 20.6753 31.6302 20.6519C31.8027 20.6318 31.9617 20.5488 32.077 20.4189C32.1923 20.2891 32.2557 20.1213 32.2553 19.9476C32.2491 17.9423 32.1308 15.5919 31.9328 13.232H38.5023V32.6293H4.85828V13.2344H11.4277C11.2298 15.5942 11.1114 17.9446 11.1053 19.95C11.1054 20.1232 11.1691 20.2904 11.2843 20.4198C11.3996 20.5492 11.5583 20.6318 11.7304 20.6519ZM29.2732 21.9718L28.8489 23.1395C28.2391 22.9669 27.5921 22.9768 26.9878 23.1678C26.5678 23.3099 26.1845 23.5433 25.8654 23.8511C25.5463 24.1589 25.2994 24.5336 25.1423 24.9483L24.4587 26.5982C24.4232 26.684 24.4049 26.7759 24.4049 26.8688C24.4049 26.9617 24.4232 27.0536 24.4587 27.1394C24.4943 27.2252 24.5464 27.3032 24.6121 27.3689C24.6777 27.4345 24.7557 27.4866 24.8415 27.5221L25.5651 27.8219C25.6511 27.8588 25.7436 27.8783 25.8372 27.8792C25.9308 27.8801 26.0236 27.8624 26.1103 27.8272C26.197 27.7919 26.2758 27.7398 26.3422 27.6738C26.4086 27.6079 26.4613 27.5294 26.4971 27.443C26.533 27.3565 26.5513 27.2638 26.5511 27.1702C26.5508 27.0766 26.532 26.984 26.4957 26.8978C26.4593 26.8115 26.4063 26.7333 26.3395 26.6677C26.2728 26.6021 26.1936 26.5505 26.1068 26.5157L26.036 26.4864L26.4485 25.4904C26.6411 25.0697 26.9893 24.7401 27.4199 24.5709C27.8505 24.4017 28.33 24.4061 28.7574 24.5832C29.1849 24.7603 29.527 25.0962 29.7118 25.5204C29.8966 25.9445 29.9097 26.4238 29.7483 26.8574L29.3359 27.854L29.1336 27.7701C28.9638 27.7129 28.7785 27.7223 28.6154 27.7964C28.4522 27.8705 28.3233 28.0039 28.2546 28.1694C28.186 28.335 28.1828 28.5205 28.2457 28.6883C28.3086 28.8561 28.4329 28.9938 28.5934 29.0735L29.4485 29.4275C29.6217 29.4992 29.8162 29.4992 29.9894 29.4275C30.1625 29.3558 30.3002 29.2183 30.372 29.0452L31.0555 27.3953C31.3376 26.7753 31.3991 26.0775 31.23 25.4178C31.061 24.758 30.6714 24.1758 30.1259 23.7679L30.6742 22.2556L31.6684 22.4583C32.24 22.5773 32.7534 22.8891 33.1225 23.3416C33.4915 23.7941 33.6938 24.3597 33.6954 24.9435V29.3912C33.6953 29.5516 33.6315 29.7054 33.5181 29.8188C33.4047 29.9322 33.2509 29.9959 33.0906 29.996H10.2676C10.1073 29.9959 9.95349 29.9322 9.84009 29.8188C9.7267 29.7054 9.66294 29.5516 9.66281 29.3912V24.9445C9.66452 24.3603 9.86714 23.7944 10.2367 23.3419C10.6062 22.8894 11.1201 22.5777 11.6922 22.4593L12.923 22.2085C13.0589 22.9435 13.2853 23.6589 13.5971 24.3383C13.2368 24.5986 12.9781 24.976 12.8653 25.406C12.7524 25.836 12.7924 26.2918 12.9784 26.6955C13.1644 27.0993 13.4849 27.4259 13.885 27.6196C14.2852 27.8132 14.7401 27.8619 15.1722 27.7572C15.6042 27.6525 15.9865 27.4011 16.2536 27.0458C16.5208 26.6905 16.6563 26.2535 16.6369 25.8093C16.6175 25.3652 16.4445 24.9417 16.1474 24.611C15.8503 24.2803 15.4476 24.0631 15.008 23.9965C14.6724 23.3453 14.4358 22.6476 14.3061 21.9266L17.1548 21.3453C17.3123 22.4333 17.8563 23.4281 18.6874 24.1476C19.5185 24.867 20.581 25.263 21.6803 25.263C22.7795 25.263 23.842 24.867 24.6731 24.1476C25.5042 23.4281 26.0483 22.4333 26.2057 21.3453L29.2732 21.9718ZM15.2254 25.8845C15.2255 25.9842 15.196 26.0816 15.1407 26.1646C15.0853 26.2475 15.0067 26.3122 14.9146 26.3504C14.8225 26.3886 14.7212 26.3986 14.6234 26.3792C14.5256 26.3599 14.4358 26.3119 14.3653 26.2414C14.2947 26.171 14.2467 26.0812 14.2272 25.9834C14.2077 25.8857 14.2177 25.7843 14.2558 25.6922C14.2939 25.6001 14.3585 25.5214 14.4414 25.466C14.5243 25.4106 14.6217 25.381 14.7214 25.381C14.8548 25.3815 14.9826 25.4348 15.0769 25.5292C15.1711 25.6236 15.2242 25.7515 15.2244 25.8849L15.2254 25.8845ZM24.8589 20.5444C24.8354 22.8161 23.251 23.8339 21.6803 23.8339C20.1096 23.8339 18.5219 22.8137 18.5016 20.534L18.6741 19.158C19.5996 19.6302 20.6232 19.8776 21.6621 19.8804C22.701 19.8832 23.7259 19.6412 24.6539 19.174L24.8589 20.5444ZM21.6803 18.4669C17.9939 18.4669 15.2395 14.6316 15.2395 11.2022C15.2395 10.9429 15.2439 10.6915 15.2527 10.4479C17.2727 8.29361 20.0884 6.73609 23.6276 5.81497C25.238 6.20054 26.699 7.05198 27.8283 8.26296C28.0349 9.22797 28.133 10.213 28.1211 11.1998C28.1211 14.6326 25.3666 18.4669 21.6803 18.4669ZM13.7909 5.73907C14.2151 3.35849 16.3365 1.07219 18.7939 1.45921C19.3246 1.57362 19.8477 1.72066 20.3604 1.8995C20.7493 2.02395 21.1405 2.1484 21.4917 2.24551C21.6142 2.27897 21.7435 2.27897 21.866 2.24551C22.2186 2.1484 22.6099 2.02395 22.9974 1.8995C23.51 1.72066 24.0331 1.57362 24.5639 1.45921C27.0302 1.07219 29.1407 3.35849 29.5668 5.73907C30.3108 10.2108 30.7335 14.7301 30.8316 19.2622C29.3175 19.1679 28.1484 18.0894 27.3465 17.008C28.7144 15.377 29.4854 13.3284 29.5324 11.2003C29.5484 10.0352 29.4218 8.87259 29.1553 7.73829L29.1082 7.55822L28.9804 7.42387C27.5995 5.89133 25.7713 4.83219 23.7549 4.39652L23.5956 4.36352L23.4377 4.40359C19.4458 5.41428 16.2804 7.19147 14.0294 9.68613L13.8602 9.87469L13.8484 10.1269C13.8314 10.4687 13.8225 10.826 13.8225 11.2012C13.8685 13.2983 14.6185 15.3189 15.9518 16.9382C15.0118 18.0842 13.8946 19.1302 12.5233 19.2542C12.6231 14.7256 13.0467 10.21 13.7909 5.7419V5.73907ZM2.52672 11.2484C2.52672 11.156 2.56336 11.0675 2.62859 11.0022C2.69382 10.9369 2.7823 10.9001 2.87461 10.9H11.6493C11.6179 11.2045 11.5864 11.5105 11.555 11.8178H4.15117C3.96364 11.8178 3.78378 11.8923 3.65117 12.0249C3.51857 12.1575 3.44407 12.3374 3.44407 12.5249V33.3364C3.44407 33.5239 3.51857 33.7038 3.65117 33.8364C3.78378 33.969 3.96364 34.0435 4.15117 34.0435H39.2094C39.3969 34.0435 39.5768 33.969 39.7094 33.8364C39.842 33.7038 39.9165 33.5239 39.9165 33.3364V12.5273C39.9165 12.3397 39.842 12.1599 39.7094 12.0273C39.5768 11.8947 39.3969 11.8202 39.2094 11.8202H31.8051C31.7736 11.5128 31.7422 11.2069 31.7108 10.9023H40.4859C40.5783 10.9025 40.6667 10.9392 40.732 11.0045C40.7972 11.0699 40.8338 11.1584 40.8338 11.2507V34.9623H2.52672V11.2484ZM41.9421 41.5233C41.9419 41.8049 41.8299 42.0749 41.6308 42.2741C41.4317 42.4733 41.1617 42.5854 40.88 42.5858H2.48052C2.19888 42.5854 1.92888 42.4733 1.72977 42.2741C1.53066 42.0749 1.4187 41.8049 1.41845 41.5233V39.5071H41.9421V41.5233Z" fill="#293754"/>
</svg>
