<svg width="32" height="33" viewBox="0 0 32 33" fill="none" xmlns="http://www.w3.org/2000/svg">
<g id="microphone-slash">
<path id="microphone-slash_2" d="M26.333 15.1673C26.333 20.5273 22.2304 24.9445 16.9997 25.4499V28.5007C16.9997 29.0527 16.5517 29.5007 15.9997 29.5007C15.4477 29.5007 14.9997 29.0527 14.9997 28.5007V25.4365C14.4504 25.3832 13.9076 25.3021 13.3809 25.1608C12.8489 25.0181 12.5305 24.4685 12.6745 23.9365C12.8172 23.4045 13.3624 23.0885 13.8998 23.2285C14.5744 23.4098 15.281 23.502 15.9997 23.502C20.5944 23.502 24.333 19.7633 24.333 15.1686C24.333 14.6166 24.781 14.1686 25.333 14.1686C25.885 14.1686 26.333 14.6153 26.333 15.1673ZM17.8851 21.2152C19.8705 20.5965 21.4262 19.0407 22.0476 17.0527C22.0769 16.9567 22.0931 16.8552 22.0931 16.7539V16.7406C22.0931 16.1886 21.6451 15.7474 21.0931 15.7474C20.6358 15.7474 20.2489 16.0592 20.1302 16.4792C19.7076 17.8058 18.6758 18.8472 17.3584 19.2832C16.9104 19.3819 16.5798 19.7821 16.5798 20.2607C16.5798 20.8127 17.0343 21.2607 17.5863 21.2607C17.689 21.2607 17.7891 21.2458 17.8851 21.2152ZM28.7064 5.20736L4.70641 29.2074C4.51174 29.402 4.25571 29.5007 3.99971 29.5007C3.74371 29.5007 3.48767 29.4034 3.293 29.2074C2.90233 28.8167 2.90233 28.1833 3.293 27.7926L8.65433 22.4313C6.72766 20.4846 5.66637 17.9073 5.66637 15.166C5.66637 14.614 6.11437 14.166 6.66637 14.166C7.21837 14.166 7.66637 14.614 7.66637 15.166C7.66637 17.3727 8.52107 19.4473 10.0677 21.0166L11.4932 19.5915C10.3399 18.4208 9.66637 16.8394 9.66637 15.1647V9.83138C9.66637 8.15405 10.3224 6.56477 11.5144 5.35677C12.7344 4.15544 14.3224 3.49805 15.9997 3.49805C19.1557 3.49805 21.7584 5.82593 22.2344 8.84993L27.293 3.79134C27.6837 3.40067 28.317 3.40067 28.7077 3.79134C29.0984 4.18201 29.0971 4.81669 28.7064 5.20736ZM12.9144 18.1712L20.333 10.7526V9.83398C20.333 7.44465 18.389 5.50065 15.9997 5.50065C14.8517 5.50065 13.7598 5.95279 12.9278 6.77279C12.1184 7.59412 11.6664 8.68598 11.6664 9.83398V15.1673C11.6664 16.306 12.1331 17.3726 12.9144 18.1712Z" fill="white"/>
</g>
</svg>
