<svg width="32" height="33" viewBox="0 0 32 33" fill="none" xmlns="http://www.w3.org/2000/svg">
<g id="phone-slash">
<path id="phone-slash_2" d="M10.9122 23.0014L14.0935 19.82C14.0948 19.8187 14.0947 19.8187 14.0961 19.8187C14.0961 19.8174 14.0974 19.8174 14.0974 19.816L28.7068 5.2067C29.0974 4.81603 29.0974 4.18269 28.7068 3.79202C28.3161 3.40136 27.6827 3.40136 27.292 3.79202L13.4109 17.6734C12.5802 16.724 11.8732 15.6667 11.3119 14.5054L12.8226 13.5054C14.4826 12.392 14.9842 10.1907 13.9655 8.49869L11.8829 4.97204C11.2335 3.89204 9.99218 3.32537 8.77218 3.5467C8.74552 3.54937 8.71877 3.55472 8.69211 3.56005C6.76411 3.95205 5.06685 5.13869 4.03618 6.81469C3.01485 8.47602 2.73479 10.4134 3.24679 12.272C4.27346 16.004 6.19202 19.4374 8.80669 22.2774L3.29204 27.792C2.90137 28.1827 2.90137 28.816 3.29204 29.2067C3.48671 29.4014 3.74275 29.5 3.99875 29.5C4.25475 29.5 4.51079 29.4027 4.70545 29.2067L10.892 23.0201C10.9 23.0134 10.9055 23.008 10.9122 23.0014ZM5.17485 11.7427C4.81352 10.424 5.01326 9.0467 5.74126 7.8627C6.47326 6.67204 7.67212 5.82401 9.03879 5.53201C9.06279 5.52935 9.08412 5.52538 9.10812 5.52005C9.52012 5.43338 9.94008 5.62271 10.1654 5.99604L12.2494 9.5227C12.7214 10.3054 12.4839 11.3254 11.7146 11.84L9.50135 13.3067C9.10135 13.572 8.94525 14.084 9.13058 14.5267C9.84258 16.2254 10.8159 17.7467 12.0053 19.0827L10.2227 20.8653C7.85204 18.2707 6.11085 15.14 5.17485 11.7427ZM29 23.2094C29 23.4121 28.9789 23.6134 28.9389 23.8107C28.5575 25.728 27.38 27.4227 25.7107 28.4547C24.5867 29.148 23.3361 29.504 22.0655 29.504C21.4535 29.504 20.8372 29.4214 20.2279 29.2547C17.4012 28.4707 14.804 27.2254 12.504 25.552C12.0573 25.2267 11.9586 24.6014 12.2839 24.1547C12.6079 23.7094 13.232 23.608 13.6814 23.9347C15.7867 25.4667 18.1681 26.608 20.7601 27.3267C22.0908 27.6894 23.4735 27.4867 24.6602 26.7534C25.8589 26.012 26.7055 24.796 26.9802 23.4147C26.9949 23.344 27.0014 23.2787 27.0014 23.2094C27.0014 22.8774 26.8054 22.5414 26.4987 22.352L22.9828 20.2547C22.1975 19.7827 21.176 20.016 20.6547 20.784L19.1641 23.0067C18.9001 23.4027 18.3935 23.5574 17.9535 23.3747C17.2548 23.0867 16.5493 22.7334 15.8627 22.3227C15.388 22.04 15.232 21.4254 15.5147 20.952C15.7987 20.4787 16.4135 20.3227 16.8855 20.6054C17.2468 20.82 17.6094 21.016 17.9721 21.1934L18.9961 19.6667C20.1161 18.0147 22.3161 17.5214 24.0108 18.54L27.5388 20.6454C28.4468 21.208 29 22.1867 29 23.2094Z" fill="white"/>
</g>
</svg>
