<svg width="32" height="33" viewBox="0 0 32 33" fill="none" xmlns="http://www.w3.org/2000/svg">
<g id="paperclip">
<path id="paperclip_2" d="M13.7413 29.5006C11.1947 29.5006 8.82264 28.5286 7.0613 26.7633C3.34664 23.0379 3.40423 16.9193 7.18956 13.1246L14.8269 5.46594C16.0896 4.19928 17.7707 3.50195 19.5574 3.50195C21.3441 3.50195 23.0255 4.19928 24.2882 5.46594C26.8935 8.07928 26.8935 12.3313 24.2882 14.9446L16.6134 22.6393C15.1627 24.0953 12.6309 24.0966 11.1749 22.6393C9.67758 21.1379 9.67758 18.6953 11.1749 17.1939L17.9161 10.434C18.3068 10.0433 18.9402 10.042 19.3308 10.4326C19.7228 10.822 19.7228 11.4553 19.3334 11.8473L12.5922 18.6073C11.8709 19.3299 11.8709 20.5059 12.5922 21.2286C13.2869 21.9273 14.5027 21.9259 15.1974 21.2286L22.8722 13.5339C24.7015 11.6993 24.7015 8.71394 22.8722 6.87927C21.1015 5.10327 18.0149 5.10327 16.2442 6.87927L8.60688 14.538C5.64821 17.5033 5.59062 22.4566 8.47862 25.3526C9.86129 26.7393 11.7293 27.502 13.7413 27.502C15.804 27.502 17.8133 26.6726 19.256 25.226L25.9588 18.5033C26.3481 18.1126 26.9815 18.1113 27.3735 18.502C27.7655 18.8913 27.7654 19.5246 27.3761 19.9166L20.6733 26.6393C18.8573 28.4566 16.3307 29.5006 13.7413 29.5006Z" fill="white"/>
</g>
</svg>
