<svg width="32" height="33" viewBox="0 0 32 33" fill="none" xmlns="http://www.w3.org/2000/svg">
<g id="video-slash">
<path id="video-slash_2" d="M30.3341 10.5801V22.42C30.3341 23.196 29.8993 23.888 29.198 24.224C28.918 24.36 28.6193 24.4255 28.3246 24.4255C27.8833 24.4255 27.4474 24.2773 27.0834 23.988L23.6674 21.2494V21.8334C23.6674 25.0574 21.8914 26.8334 18.6674 26.8334H12.0007C11.4487 26.8334 11.0007 26.3854 11.0007 25.8334C11.0007 25.2814 11.4487 24.8334 12.0007 24.8334H18.6674C20.7701 24.8334 21.6674 23.936 21.6674 21.8334V15.1667C21.6674 14.6147 22.1154 14.1667 22.6674 14.1667C23.2194 14.1667 23.6674 14.6147 23.6674 15.1667V18.6866L28.3328 22.4255L28.3341 10.5801C27.8087 10.6281 27.3009 10.2067 27.2595 9.65465C27.2195 9.10399 27.6288 8.62405 28.1794 8.58271C28.7514 8.54405 29.2913 8.73725 29.7006 9.11592C30.1086 9.49592 30.3341 10.0161 30.3341 10.5801ZM28.7074 5.20674L4.70744 29.2067C4.51277 29.4014 4.25673 29.5 4.00073 29.5C3.74473 29.5 3.48869 29.4027 3.29403 29.2067C2.90336 28.8161 2.90336 28.1827 3.29403 27.792L4.57137 26.5147C2.6847 25.8733 1.6687 24.2681 1.6687 21.8321V11.1654C1.6687 7.9414 3.4447 6.1654 6.6687 6.1654H18.6687C20.6527 6.1654 22.1087 6.86667 22.9194 8.168L27.2953 3.79202C27.686 3.40136 28.3194 3.40136 28.71 3.79202C29.1007 4.18269 29.0981 4.81607 28.7074 5.20674ZM6.27677 24.8106L21.4301 9.65726C21.1568 8.88792 20.5074 8.1667 18.6674 8.1667H6.6674C4.56473 8.1667 3.6674 9.06403 3.6674 11.1667V21.8334C3.6674 23.796 4.46211 24.6972 6.27677 24.8106Z" fill="white"/>
</g>
</svg>
