<svg width="32" height="33" viewBox="0 0 32 33" fill="none" xmlns="http://www.w3.org/2000/svg">
<g id="wifi">
<path id="wifi_2" d="M20.6039 21.062C21.0439 21.3953 21.1306 22.0233 20.7973 22.4633C20.6013 22.722 20.3015 22.8593 19.9988 22.8593C19.7895 22.8593 19.5763 22.7926 19.3963 22.6553C17.4483 21.1766 14.5519 21.1766 12.6039 22.6553C12.1666 22.99 11.5362 22.9033 11.2029 22.4633C10.8696 22.0233 10.9549 21.3966 11.3963 21.062C14.0443 19.0513 17.9559 19.0513 20.6039 21.062ZM16.0001 14.1807C12.8214 14.1807 9.74942 15.318 7.34809 17.382C6.93075 17.742 6.88128 18.3726 7.24262 18.7926C7.60395 19.2126 8.23476 19.258 8.65342 18.8993C10.6908 17.1473 13.3001 16.182 16.0014 16.182C18.7027 16.182 21.3107 17.1473 23.3494 18.8993C23.5387 19.062 23.7694 19.1407 24.0014 19.1407C24.2827 19.1407 24.5616 19.022 24.7589 18.7926C25.1202 18.374 25.0708 17.742 24.6534 17.382C22.2508 15.318 19.1788 14.1807 16.0001 14.1807ZM28.6668 13.6793C25.1788 10.5553 20.6814 8.83398 16.0001 8.83398C11.3188 8.83398 6.82144 10.5553 3.33344 13.6793C2.92144 14.0473 2.88666 14.6793 3.25466 15.0913C3.62266 15.5033 4.2561 15.5367 4.66677 15.1687C7.7881 12.374 11.8121 10.834 16.0001 10.834C20.1881 10.834 24.2121 12.374 27.3334 15.1687C27.5241 15.3393 27.7614 15.4233 28.0001 15.4233C28.2748 15.4233 28.5469 15.3113 28.7455 15.09C29.1135 14.6793 29.0788 14.0473 28.6668 13.6793ZM16.0001 24.5007C15.2641 24.5007 14.6668 25.098 14.6668 25.834C14.6668 26.57 15.2641 27.1673 16.0001 27.1673C16.7361 27.1673 17.3334 26.57 17.3334 25.834C17.3334 25.098 16.7361 24.5007 16.0001 24.5007Z" fill="white"/>
</g>
</svg>
