<svg width="48" height="48" viewBox="0 0 48 48" fill="none" xmlns="http://www.w3.org/2000/svg">
<path opacity="0.4" d="M26 6.5H14C7.16 6.5 4.5 9.16 4.5 16V32C4.5 36.6 7 41.5 14 41.5H26C32.84 41.5 35.5 38.84 35.5 32V16C35.5 9.16 32.84 6.5 26 6.5Z" fill="#293754"/>
<path d="M23.0002 22.76C25.0768 22.76 26.7602 21.0766 26.7602 19C26.7602 16.9234 25.0768 15.24 23.0002 15.24C20.9236 15.24 19.2402 16.9234 19.2402 19C19.2402 21.0766 20.9236 22.76 23.0002 22.76Z" fill="#293754"/>
<path d="M43.3009 12.3392C42.4809 11.9192 40.7609 11.4392 38.4209 13.0792L35.4609 15.1592C35.4809 15.4392 35.5009 15.6992 35.5009 15.9992V31.9992C35.5009 32.2992 35.4609 32.5592 35.4609 32.8392L38.4209 34.9192C39.6609 35.7992 40.7409 36.0792 41.6009 36.0792C42.3409 36.0792 42.9209 35.8792 43.3009 35.6792C44.1209 35.2592 45.5009 34.1192 45.5009 31.2592V16.7592C45.5009 13.8992 44.1209 12.7592 43.3009 12.3392Z" fill="#293754"/>
</svg>
