<svg width="17" height="12" viewBox="0 0 17 12" fill="none" xmlns="http://www.w3.org/2000/svg">
<path d="M13.5277 11.841H2.85805C1.45839 11.841 0.32373 10.7063 0.32373 9.30668V3.12493C0.32373 1.72527 1.45839 0.590606 2.85805 0.590606H13.5277C14.9273 0.590606 16.062 1.72527 16.062 3.12493V9.30671C16.062 10.7063 14.9273 11.841 13.5277 11.841Z" fill="white"/>
<path d="M13.5286 0.590391H12.5786C13.9777 0.590391 15.1119 1.72548 15.1119 3.1257V9.30548C15.1119 10.7057 13.9777 11.8408 12.5786 11.8408H13.5286C14.9277 11.8408 16.0619 10.7057 16.0619 9.30548V3.1257C16.0619 1.72548 14.9277 0.590391 13.5286 0.590391Z" fill="white"/>
<path d="M6.31055 4.01118V8.4194C6.31055 8.71277 6.63069 8.89367 6.8817 8.74216L10.5329 6.53803C10.7757 6.39147 10.7757 6.03911 10.5329 5.89252L6.8817 3.6884C6.63069 3.53691 6.31055 3.71781 6.31055 4.01118Z" fill="#293754"/>
</svg>
