<svg width="77" height="24" viewBox="0 0 77 24" fill="none" xmlns="http://www.w3.org/2000/svg">
    <path
        d="M63.5713 13.3713C63.5713 12.235 64.0878 11.3002 65.1207 10.5669C66.164 9.83349 67.3931 9.4668 68.8082 9.4668C70.5436 9.4668 71.7624 9.81283 72.4648 10.5049C73.1775 11.1969 73.5339 12.3642 73.5339 14.0065V20.4365C73.5339 21.0149 73.7456 21.3041 74.1691 21.3041C74.51 21.3041 74.9438 20.8909 75.4706 20.0646C75.8425 20.0956 76.0955 20.2609 76.2298 20.5604C76.1575 20.6637 76.0336 20.8496 75.858 21.1182C75.6824 21.3867 75.5532 21.5778 75.4706 21.6915C75.388 21.8051 75.2589 21.9807 75.0833 22.2182C74.9077 22.4455 74.7631 22.6159 74.6494 22.7295C74.5461 22.8432 74.4015 22.9774 74.2156 23.1324C74.04 23.2873 73.8747 23.4061 73.7198 23.4887C73.5752 23.5611 73.4048 23.623 73.2085 23.6747C73.0122 23.7366 72.816 23.7676 72.6197 23.7676C72.1033 23.7676 71.6746 23.5817 71.3337 23.2099C71.0032 22.838 70.807 22.2647 70.745 21.49C70.7347 21.5004 70.5745 21.6501 70.2647 21.9394C69.9548 22.2286 69.7379 22.4248 69.6139 22.5281C69.5003 22.6211 69.2782 22.7915 68.9477 23.0394C68.6275 23.277 68.3538 23.4474 68.1265 23.5507C67.8993 23.654 67.6152 23.7521 67.2744 23.8451C66.9335 23.9484 66.5978 24 66.2673 24C65.7405 24 65.2705 23.9277 64.8573 23.7831C64.4545 23.6385 64.1394 23.4629 63.9122 23.2563C63.6849 23.0498 63.499 22.8122 63.3544 22.5436C63.2098 22.2647 63.1117 22.0117 63.06 21.7844C63.0187 21.5572 62.998 21.3299 62.998 21.1027C62.998 20.4106 63.1117 19.827 63.3389 19.3519C63.5765 18.8767 64.0103 18.4326 64.6404 18.0194C65.2808 17.6062 66.0658 17.2396 66.9955 16.9193C67.9251 16.5991 69.1749 16.2376 70.745 15.8348V13.6811C70.745 12.6379 70.5126 11.858 70.0478 11.3416C69.5933 10.8251 68.9787 10.5669 68.204 10.5669C67.5119 10.5669 66.9283 10.7063 66.4532 10.9852C65.9884 11.2538 65.7043 11.5688 65.601 11.9303C66.6133 12.0853 67.1194 12.6379 67.1194 13.5882C67.1194 14.022 66.9645 14.4042 66.6546 14.7347C66.3447 15.0652 65.9109 15.2305 65.3531 15.2305C64.8883 15.2305 64.4751 15.0704 64.1136 14.7502C63.7521 14.4197 63.5713 13.96 63.5713 13.3713ZM70.745 20.0646V16.8264C69.7947 17.0433 69.0097 17.2809 68.3899 17.5391C67.7702 17.787 67.295 18.0607 66.9645 18.3603C66.6443 18.6598 66.4222 18.9697 66.2982 19.2899C66.1743 19.5998 66.1123 19.9613 66.1123 20.3745C66.1123 20.8909 66.2621 21.2989 66.5616 21.5985C66.8715 21.8877 67.2485 22.0323 67.6927 22.0323C68.7256 22.0323 69.743 21.3764 70.745 20.0646Z"
        fill="#FFFFFF
        " />
    <path
        d="M42.062 1.2705C44.0349 1.08457 45.7805 0.661072 47.2989 0C47.5881 0.123951 47.7689 0.263396 47.8412 0.418334V11.8063C49.4422 10.2466 51.0587 9.46675 52.6908 9.46675C54.2815 9.46675 55.5778 10.0607 56.5797 11.2485C57.5817 12.4261 58.0826 14.0219 58.0826 16.0362C58.0826 16.7902 58 17.5339 57.8347 18.2673C57.6695 18.9903 57.3957 19.703 57.0136 20.4054C56.6314 21.0975 56.1614 21.7069 55.6036 22.2337C55.0458 22.7605 54.3383 23.1892 53.481 23.5197C52.6236 23.8399 51.6733 24 50.6301 24C49.6075 24 48.6107 23.8296 47.6398 23.4887C46.6688 23.1478 45.8063 22.6624 45.0523 22.0323C45.073 21.0097 45.0833 18.5203 45.0833 14.5642C45.0833 12.9219 45.0781 10.6856 45.0678 7.85539C45.0575 5.02518 45.0523 3.2847 45.0523 2.63396C44.4739 2.29309 43.4771 2.08134 42.062 1.99871C42.0207 1.83344 42 1.70949 42 1.62686C42 1.55455 42.0207 1.43577 42.062 1.2705ZM51.2034 11.4964C50.5113 11.4964 49.907 11.6256 49.3906 11.8838C48.8844 12.1317 48.368 12.5087 47.8412 13.0148C47.8412 16.3615 47.8618 19.0678 47.9032 21.1336C48.6159 22.3628 49.7056 22.9774 51.1724 22.9774C51.4822 22.9774 51.7921 22.9258 52.102 22.8225C52.4222 22.7192 52.7579 22.5229 53.1091 22.2337C53.4603 21.9445 53.765 21.5778 54.0232 21.1336C54.2918 20.6895 54.5139 20.0904 54.6895 19.3363C54.8651 18.5823 54.9529 17.725 54.9529 16.7644C54.9529 15.7728 54.8238 14.8896 54.5655 14.1149C54.3073 13.3402 53.889 12.7101 53.3105 12.2247C52.7321 11.7392 52.0297 11.4964 51.2034 11.4964Z"
        fill="#FFFFFF
        " />
    <path
        d="M33.6655 10.7992C35.6694 10.5926 37.415 10.1691 38.9024 9.52868C39.1606 9.63197 39.3414 9.76625 39.4447 9.93152C39.4447 15.2924 39.486 19.1245 39.5687 21.428C39.579 21.6965 39.6565 21.9289 39.8011 22.1252C39.956 22.3111 40.1729 22.4557 40.4518 22.559C40.7307 22.6623 40.9631 22.7398 41.149 22.7914C41.335 22.8327 41.5777 22.8741 41.8772 22.9154C41.9392 23.0393 41.9702 23.1684 41.9702 23.3027C41.9702 23.437 41.9392 23.5506 41.8772 23.6436C40.5138 23.5816 39.1916 23.5506 37.9108 23.5506C36.6506 23.5506 35.3388 23.5816 33.9754 23.6436C33.9341 23.4783 33.9134 23.3647 33.9134 23.3027C33.9134 23.2511 33.9341 23.122 33.9754 22.9154C34.3162 22.8741 34.5951 22.8327 34.812 22.7914C35.029 22.7398 35.2975 22.6623 35.6177 22.559C35.9379 22.4557 36.1807 22.3111 36.3459 22.1252C36.5112 21.9289 36.599 21.6965 36.6093 21.428C36.6506 20.4054 36.6713 19.1659 36.6713 17.7094C36.6713 17.224 36.6661 16.3976 36.6558 15.2304C36.6455 14.0632 36.6403 13.0406 36.6403 12.1626C36.0515 11.8011 35.0599 11.5894 33.6655 11.5274C33.6242 11.3621 33.6035 11.233 33.6035 11.14C33.6035 11.0781 33.6242 10.9644 33.6655 10.7992ZM36.098 4.32274C36.098 3.79595 36.284 3.34662 36.6558 2.97477C37.038 2.60292 37.4873 2.41699 38.0038 2.41699C38.5306 2.41699 38.9799 2.60292 39.3517 2.97477C39.7236 3.34662 39.9095 3.79595 39.9095 4.32274C39.9095 4.8392 39.7236 5.28852 39.3517 5.6707C38.9799 6.04256 38.5306 6.22848 38.0038 6.22848C37.4873 6.22848 37.038 6.04256 36.6558 5.6707C36.284 5.28852 36.098 4.8392 36.098 4.32274Z"
        fill="#FFFFFF
        " />
    <path
        d="M23.1014 1.2705C25.0536 1.08457 26.7993 0.661072 28.3383 0C28.6069 0.113622 28.7825 0.253067 28.8651 0.418334C28.8651 12.1214 28.9116 19.1246 29.0046 21.428C29.0149 21.6966 29.0924 21.929 29.237 22.1252C29.3919 22.3112 29.6088 22.4558 29.8877 22.5591C30.1666 22.6624 30.399 22.7398 30.5849 22.7915C30.7709 22.8328 31.0136 22.8741 31.3131 22.9154C31.3545 23.0807 31.3751 23.2098 31.3751 23.3028C31.3751 23.3648 31.3545 23.4784 31.3131 23.6436C30.9516 23.623 30.5798 23.6023 30.1976 23.5817C29.8257 23.561 29.5314 23.5455 29.3144 23.5352C29.0975 23.5249 28.8961 23.5197 28.7102 23.5197C28.5552 23.5197 28.3796 23.5249 28.1834 23.5352C27.9871 23.5455 27.7186 23.561 27.3777 23.5817C27.0368 23.6023 26.7011 23.623 26.3706 23.6436C26.319 23.623 26.2725 23.5972 26.2312 23.5662C26.2002 23.5455 26.1743 23.53 26.1537 23.5197C26.1434 23.499 26.1279 23.4732 26.1072 23.4422C26.0865 23.4009 26.0711 23.3751 26.0607 23.3648C26.0504 23.3544 26.0349 23.3234 26.0142 23.2718C26.0039 23.2098 25.9936 23.1737 25.9833 23.1633C26.0246 22.9154 26.0452 22.3577 26.0452 21.49C24.3409 23.1633 22.7657 24 21.3196 24C19.7289 24 18.4326 23.4009 17.4306 22.2027C16.4287 21.0045 15.9277 19.3725 15.9277 17.3067C15.9277 16.5939 16.0104 15.8812 16.1756 15.1685C16.3409 14.4558 16.6146 13.7534 16.9968 13.0613C17.379 12.3693 17.849 11.7598 18.4068 11.2331C18.9645 10.7063 19.6721 10.2828 20.5294 9.96256C21.3867 9.63202 22.337 9.46675 23.3803 9.46675C24.155 9.46675 25.064 9.63202 26.1072 9.96256C26.0865 8 26.0762 5.55713 26.0762 2.63396C25.4875 2.29309 24.4958 2.08134 23.1014 1.99871C23.0601 1.83344 23.0394 1.70949 23.0394 1.62686C23.0394 1.55455 23.0601 1.43577 23.1014 1.2705ZM22.807 21.9703C23.8399 21.9703 24.9297 21.4177 26.0762 20.3125C26.0969 19.3002 26.1072 17.3841 26.1072 14.5642V12.3176C25.3945 11.0884 24.3048 10.4739 22.838 10.4739C22.5281 10.4739 22.2182 10.5203 21.9084 10.6133C21.5985 10.7063 21.268 10.8922 20.9168 11.1711C20.5656 11.45 20.2557 11.8063 19.9871 12.2402C19.7289 12.674 19.512 13.2782 19.3364 14.0529C19.1608 14.8173 19.073 15.7005 19.073 16.7024C19.073 18.2311 19.388 19.4913 20.0181 20.4829C20.6585 21.4745 21.5882 21.9703 22.807 21.9703Z"
        fill="#FFFFFF
        " />
    <path
        d="M0.573273 13.3713C0.573273 12.235 1.08974 11.3002 2.12266 10.5669C3.16591 9.83349 4.39509 9.4668 5.8102 9.4668C7.54551 9.4668 8.76436 9.81283 9.46675 10.5049C10.1795 11.1969 10.5358 12.3642 10.5358 14.0065V20.4365C10.5358 21.0149 10.7476 21.3041 11.1711 21.3041C11.5119 21.3041 11.9458 20.8909 12.4726 20.0646C12.8444 20.0956 13.0975 20.2609 13.2318 20.5604C13.1595 20.6637 13.0355 20.8496 12.8599 21.1182C12.6843 21.3867 12.5552 21.5778 12.4726 21.6915C12.3899 21.8051 12.2608 21.9807 12.0852 22.2182C11.9096 22.4455 11.765 22.6159 11.6514 22.7295C11.5481 22.8432 11.4035 22.9774 11.2176 23.1324C11.042 23.2873 10.8767 23.4061 10.7218 23.4887C10.5771 23.5611 10.4067 23.623 10.2105 23.6747C10.0142 23.7366 9.81795 23.7676 9.62169 23.7676C9.10523 23.7676 8.67657 23.5817 8.3357 23.2099C8.00517 22.838 7.80891 22.2647 7.74693 21.49C7.7366 21.5004 7.5765 21.6501 7.26662 21.9394C6.95675 22.2286 6.73983 22.4248 6.61588 22.5281C6.50226 22.6211 6.28018 22.7915 5.94965 23.0394C5.62944 23.277 5.35571 23.4474 5.12847 23.5507C4.90123 23.654 4.61717 23.7521 4.27631 23.8451C3.93544 23.9484 3.59974 24 3.26921 24C2.74241 24 2.27243 23.9277 1.85926 23.7831C1.45642 23.6385 1.14138 23.4629 0.914138 23.2563C0.686895 23.0498 0.500968 22.8122 0.356359 22.5436C0.21175 22.2647 0.113622 22.0117 0.0619755 21.7844C0.0206585 21.5572 0 21.3299 0 21.1027C0 20.4106 0.113622 19.827 0.340865 19.3519C0.578438 18.8767 1.01227 18.4326 1.64235 18.0194C2.28276 17.6062 3.06779 17.2396 3.99742 16.9193C4.92705 16.5991 6.17689 16.2376 7.74693 15.8348V13.6811C7.74693 12.6379 7.51453 11.858 7.04971 11.3416C6.59522 10.8251 5.98063 10.5669 5.20594 10.5669C4.51388 10.5669 3.93028 10.7063 3.45513 10.9852C2.99032 11.2538 2.70626 11.5688 2.60297 11.9303C3.61524 12.0853 4.12137 12.6379 4.12137 13.5882C4.12137 14.022 3.96643 14.4042 3.65655 14.7347C3.34668 15.0652 2.91285 15.2305 2.35507 15.2305C1.89025 15.2305 1.47708 15.0704 1.11556 14.7502C0.754035 14.4197 0.573273 13.96 0.573273 13.3713ZM7.74693 20.0646V16.8264C6.79664 17.0433 6.01162 17.2809 5.39187 17.5391C4.77211 17.787 4.29697 18.0607 3.96643 18.3603C3.64622 18.6598 3.42414 18.9697 3.30019 19.2899C3.17624 19.5998 3.11427 19.9613 3.11427 20.3745C3.11427 20.8909 3.26404 21.2989 3.56359 21.5985C3.87347 21.8877 4.25048 22.0323 4.69464 22.0323C5.72757 22.0323 6.745 21.3764 7.74693 20.0646Z"
        fill="#FFFFFF
        " />
</svg>