<svg width="128" height="40" viewBox="0 0 128 40" fill="none" xmlns="http://www.w3.org/2000/svg">
<path d="M105.952 22.2853C105.952 20.3916 106.813 18.8336 108.534 17.6113C110.273 16.389 112.322 15.7778 114.68 15.7778C117.572 15.7778 119.604 16.3545 120.775 17.508C121.962 18.6614 122.556 20.6068 122.556 23.344V34.0606C122.556 35.0247 122.909 35.5067 123.615 35.5067C124.183 35.5067 124.906 34.8181 125.784 33.4408C126.404 33.4925 126.826 33.7679 127.05 34.2672C126.929 34.4393 126.722 34.7492 126.43 35.1968C126.137 35.6444 125.922 35.9629 125.784 36.1523C125.646 36.3416 125.431 36.6343 125.139 37.0303C124.846 37.409 124.605 37.693 124.416 37.8824C124.243 38.0718 124.002 38.2956 123.693 38.5538C123.4 38.812 123.124 39.01 122.866 39.1477C122.625 39.2683 122.341 39.3715 122.014 39.4576C121.687 39.5609 121.36 39.6126 121.033 39.6126C120.172 39.6126 119.458 39.3027 118.889 38.6829C118.339 38.0632 118.011 37.1077 117.908 35.8166C117.891 35.8338 117.624 36.0834 117.108 36.5654C116.591 37.0475 116.23 37.3746 116.023 37.5467C115.834 37.7017 115.464 37.9857 114.913 38.3989C114.379 38.7948 113.923 39.0789 113.544 39.251C113.165 39.4232 112.692 39.5867 112.124 39.7417C111.556 39.9138 110.996 39.9999 110.445 39.9999C109.567 39.9999 108.784 39.8794 108.095 39.6384C107.424 39.3974 106.899 39.1047 106.52 38.7604C106.141 38.4161 105.832 38.0201 105.591 37.5725C105.349 37.1077 105.186 36.6859 105.1 36.3072C105.031 35.9285 104.997 35.5497 104.997 35.171C104.997 34.0176 105.186 33.0449 105.565 32.253C105.961 31.4611 106.684 30.7208 107.734 30.0322C108.801 29.3436 110.11 28.7324 111.659 28.1987C113.208 27.6651 115.291 27.0625 117.908 26.3911V22.8017C117.908 21.063 117.521 19.7632 116.746 18.9024C115.989 18.0417 114.964 17.6113 113.673 17.6113C112.52 17.6113 111.547 17.8437 110.755 18.3085C109.98 18.7561 109.507 19.2812 109.335 19.8837C111.022 20.1419 111.866 21.063 111.866 22.6468C111.866 23.3698 111.607 24.0068 111.091 24.5577C110.574 25.1086 109.851 25.384 108.922 25.384C108.147 25.384 107.458 25.1172 106.856 24.5835C106.253 24.0326 105.952 23.2665 105.952 22.2853ZM117.908 33.4408V28.0438C116.324 28.4053 115.016 28.8013 113.983 29.2317C112.95 29.6448 112.158 30.1011 111.607 30.6003C111.074 31.0995 110.703 31.616 110.497 32.1497C110.29 32.6661 110.187 33.2687 110.187 33.9573C110.187 34.8181 110.437 35.4981 110.936 35.9973C111.452 36.4794 112.081 36.7204 112.821 36.7204C114.543 36.7204 116.238 35.6272 117.908 33.4408Z" fill="#293754"/>
<path d="M70.1033 2.1175C73.3914 1.80762 76.3008 1.10179 78.8315 0C79.3135 0.206585 79.6148 0.438993 79.7353 0.697224V19.6772C82.4037 17.0777 85.0979 15.7779 87.8179 15.7779C90.4691 15.7779 92.6297 16.7678 94.2995 18.7476C95.9694 20.7101 96.8044 23.3699 96.8044 26.7269C96.8044 27.9836 96.6667 29.2232 96.3912 30.4454C96.1158 31.6505 95.6596 32.8384 95.0226 34.009C94.3856 35.1625 93.6023 36.1782 92.6727 37.0562C91.7431 37.9342 90.5638 38.6486 89.1349 39.1995C87.706 39.7332 86.1222 40 84.3835 40C82.6791 40 81.0179 39.7159 79.3996 39.1478C77.7814 38.5797 76.3439 37.7706 75.0872 36.7205C75.1216 35.0161 75.1388 30.8672 75.1388 24.2737C75.1388 21.5365 75.1302 17.8093 75.113 13.0923C75.0958 8.3753 75.0872 5.4745 75.0872 4.38993C74.1231 3.82182 72.4618 3.4689 70.1033 3.33118C70.0344 3.05573 70 2.84915 70 2.71143C70 2.59092 70.0344 2.39294 70.1033 2.1175ZM85.3389 19.1607C84.1855 19.1607 83.1784 19.3759 82.3176 19.8063C81.4741 20.2195 80.6133 20.8479 79.7353 21.6914C79.7353 27.2692 79.7697 31.7796 79.8386 35.2227C81.0265 37.2714 82.8427 38.2957 85.2873 38.2957C85.8037 38.2957 86.3202 38.2096 86.8367 38.0374C87.3703 37.8653 87.9298 37.5382 88.5152 37.0562C89.1005 36.5741 89.6083 35.963 90.0387 35.2227C90.4863 34.4825 90.8565 33.484 91.1491 32.2272C91.4418 30.9705 91.5881 29.5416 91.5881 27.9406C91.5881 26.2879 91.3729 24.816 90.9425 23.5249C90.5122 22.2337 89.8149 21.1836 88.8509 20.3744C87.8868 19.5653 86.7162 19.1607 85.3389 19.1607Z" fill="#293754"/>
<path d="M56.1135 17.9986C59.4533 17.6543 62.3627 16.9485 64.8418 15.8811C65.2721 16.0533 65.5734 16.2771 65.7456 16.5525C65.7456 25.4873 65.8144 31.8742 65.9522 35.7133C65.9694 36.1609 66.0985 36.5482 66.3395 36.8753C66.5977 37.1852 66.9593 37.4262 67.4241 37.5984C67.8889 37.7705 68.2762 37.8996 68.5861 37.9857C68.896 38.0546 69.3005 38.1234 69.7998 38.1923C69.9031 38.3989 69.9547 38.6141 69.9547 38.8379C69.9547 39.0617 69.9031 39.251 69.7998 39.406C67.5274 39.3027 65.3238 39.251 63.1891 39.251C61.0888 39.251 58.9024 39.3027 56.63 39.406C56.5611 39.1305 56.5267 38.9412 56.5267 38.8379C56.5267 38.7518 56.5611 38.5366 56.63 38.1923C57.1981 38.1234 57.6629 38.0546 58.0245 37.9857C58.386 37.8996 58.8336 37.7705 59.3673 37.5984C59.9009 37.4262 60.3055 37.1852 60.5809 36.8753C60.8564 36.5482 61.0027 36.1609 61.0199 35.7133C61.0888 34.009 61.1232 31.9431 61.1232 29.5157C61.1232 28.7066 61.1146 27.3294 61.0974 25.384C61.0802 23.4387 61.0716 21.7344 61.0716 20.2711C60.0903 19.6685 58.4376 19.3156 56.1135 19.2123C56.0447 18.9369 56.0103 18.7217 56.0103 18.5667C56.0103 18.4634 56.0447 18.2741 56.1135 17.9986ZM60.1678 7.20456C60.1678 6.32658 60.4777 5.57771 61.0974 4.95795C61.7344 4.3382 62.4832 4.02832 63.344 4.02832C64.222 4.02832 64.9709 4.3382 65.5906 4.95795C66.2104 5.57771 66.5203 6.32658 66.5203 7.20456C66.5203 8.06533 66.2104 8.8142 65.5906 9.45117C64.9709 10.0709 64.222 10.3808 63.344 10.3808C62.4832 10.3808 61.7344 10.0709 61.0974 9.45117C60.4777 8.8142 60.1678 8.06533 60.1678 7.20456Z" fill="#293754"/>
<path d="M38.5025 2.1175C41.7562 1.80762 44.6656 1.10179 47.2307 0C47.6783 0.189369 47.971 0.421778 48.1087 0.697224C48.1087 20.2023 48.1862 31.8743 48.3411 35.7134C48.3583 36.161 48.4874 36.5483 48.7284 36.8754C48.9867 37.1853 49.3482 37.4263 49.813 37.5984C50.2778 37.7706 50.6652 37.8997 50.9751 37.9858C51.2849 38.0547 51.6895 38.1235 52.1887 38.1924C52.2576 38.4678 52.292 38.683 52.292 38.838C52.292 38.9413 52.2576 39.1306 52.1887 39.4061C51.5862 39.3716 50.9664 39.3372 50.3295 39.3028C49.7097 39.2683 49.2191 39.2425 48.8576 39.2253C48.496 39.2081 48.1603 39.1995 47.8505 39.1995C47.5922 39.1995 47.2996 39.2081 46.9725 39.2253C46.6454 39.2425 46.1978 39.2683 45.6297 39.3028C45.0616 39.3372 44.5021 39.3716 43.9512 39.4061C43.8651 39.3716 43.7876 39.3286 43.7188 39.277C43.6671 39.2425 43.6241 39.2167 43.5896 39.1995C43.5724 39.1651 43.5466 39.122 43.5122 39.0704C43.4777 39.0015 43.4519 38.9585 43.4347 38.9413C43.4175 38.924 43.3917 38.8724 43.3572 38.7863C43.34 38.683 43.3228 38.6228 43.3056 38.6056C43.3744 38.1924 43.4089 37.2627 43.4089 35.8167C40.5683 38.6056 37.943 40 35.5328 40C32.8817 40 30.7211 39.0015 29.0512 37.0045C27.3813 35.0075 26.5464 32.2875 26.5464 28.8444C26.5464 27.6566 26.6841 26.4687 26.9596 25.2808C27.235 24.093 27.6912 22.9223 28.3282 21.7689C28.9652 20.6155 29.7485 19.5997 30.6781 18.7218C31.6077 17.8438 32.787 17.1379 34.2159 16.6043C35.6447 16.0534 37.2285 15.7779 38.9673 15.7779C40.2585 15.7779 41.7734 16.0534 43.5122 16.6043C43.4777 13.3333 43.4605 9.26189 43.4605 4.38993C42.4792 3.82182 40.8266 3.4689 38.5025 3.33118C38.4336 3.05573 38.3992 2.84915 38.3992 2.71143C38.3992 2.59092 38.4336 2.39294 38.5025 2.1175ZM38.0118 36.6172C39.7334 36.6172 41.5496 35.6961 43.4605 33.8541C43.495 32.167 43.5122 28.9735 43.5122 24.2737V20.5294C42.3243 18.4807 40.5081 17.4564 38.0635 17.4564C37.547 17.4564 37.0306 17.5339 36.5141 17.6888C35.9976 17.8438 35.4468 18.1536 34.8614 18.6185C34.2761 19.0833 33.7596 19.6772 33.312 20.4003C32.8817 21.1233 32.5201 22.1304 32.2275 23.4216C31.9348 24.6955 31.7885 26.1674 31.7885 27.8373C31.7885 30.3852 32.3135 32.4855 33.3637 34.1382C34.431 35.7908 35.9804 36.6172 38.0118 36.6172Z" fill="#293754"/>
<path d="M0.955455 22.2853C0.955455 20.3916 1.81623 18.8336 3.53777 17.6113C5.27652 16.389 7.32516 15.7778 9.68367 15.7778C12.5759 15.7778 14.6073 16.3545 15.7779 17.508C16.9658 18.6614 17.5597 20.6068 17.5597 23.344V34.0606C17.5597 35.0247 17.9126 35.5067 18.6185 35.5067C19.1866 35.5067 19.9096 34.8181 20.7876 33.4408C21.4074 33.4925 21.8291 33.7679 22.0529 34.2672C21.9324 34.4393 21.7258 34.7492 21.4332 35.1968C21.1405 35.6444 20.9253 35.9629 20.7876 36.1523C20.6499 36.3416 20.4347 36.6343 20.142 37.0303C19.8494 37.409 19.6084 37.693 19.419 37.8824C19.2468 38.0718 19.0058 38.2956 18.6959 38.5538C18.4033 38.812 18.1278 39.01 17.8696 39.1477C17.6286 39.2683 17.3445 39.3715 17.0174 39.4576C16.6903 39.5609 16.3632 39.6126 16.0362 39.6126C15.1754 39.6126 14.4609 39.3027 13.8928 38.6829C13.3419 38.0632 13.0148 37.1077 12.9116 35.8166C12.8943 35.8338 12.6275 36.0834 12.111 36.5654C11.5946 37.0475 11.2331 37.3746 11.0265 37.5467C10.8371 37.7017 10.467 37.9857 9.91608 38.3989C9.3824 38.7948 8.92619 39.0789 8.54745 39.251C8.16871 39.4232 7.69529 39.5867 7.12718 39.7417C6.55907 39.9138 5.99957 39.9999 5.44868 39.9999C4.57069 39.9999 3.78739 39.8794 3.09877 39.6384C2.42737 39.3974 1.9023 39.1047 1.52356 38.7604C1.14482 38.4161 0.834947 38.0201 0.593932 37.5725C0.352916 37.1077 0.189369 36.6859 0.103292 36.3072C0.0344308 35.9285 0 35.5497 0 35.171C0 34.0176 0.18937 33.0449 0.568108 32.253C0.964063 31.4611 1.68711 30.7208 2.73725 30.0322C3.80461 29.3436 5.11298 28.7324 6.66236 28.1987C8.21175 27.6651 10.2948 27.0625 12.9116 26.3911V22.8017C12.9116 21.063 12.5242 19.7632 11.7495 18.9024C10.992 18.0417 9.96772 17.6113 8.67657 17.6113C7.52313 17.6113 6.55046 17.8437 5.75855 18.3085C4.98386 18.7561 4.51044 19.2812 4.33828 19.8837C6.02539 20.1419 6.86895 21.063 6.86895 22.6468C6.86895 23.3698 6.61072 24.0068 6.09425 24.5577C5.57779 25.1086 4.85475 25.384 3.92511 25.384C3.15042 25.384 2.4618 25.1172 1.85926 24.5835C1.25672 24.0326 0.955455 23.2665 0.955455 22.2853ZM12.9116 33.4408V28.0438C11.3277 28.4053 10.0194 28.8013 8.98644 29.2317C7.95352 29.6448 7.16161 30.1011 6.61072 30.6003C6.07704 31.0995 5.70691 31.616 5.50032 32.1497C5.29374 32.6661 5.19045 33.2687 5.19045 33.9573C5.19045 34.8181 5.44007 35.4981 5.93932 35.9973C6.45578 36.4794 7.08414 36.7204 7.8244 36.7204C9.54594 36.7204 11.2417 35.6272 12.9116 33.4408Z" fill="#293754"/>
</svg>
