<svg width="336" height="336" viewBox="0 0 336 336" fill="none" xmlns="http://www.w3.org/2000/svg">
<path d="M335.405 168.274C335.409 190.271 331.08 212.053 322.664 232.377C314.248 252.7 301.911 271.167 286.356 286.721C270.802 302.275 252.336 314.612 232.013 323.028C211.689 331.444 189.907 335.773 167.91 335.769C75.4062 335.769 0.415105 260.778 0.415105 168.274C0.399138 150.281 3.28355 132.403 8.95738 115.327C20.0968 81.9792 41.4375 52.9767 69.9618 32.4209C98.4861 11.8651 132.751 0.796261 167.91 0.779521C198.233 0.768987 227.989 8.99298 254.003 24.5736C280.016 40.1542 301.311 62.5066 315.612 89.2446C319.158 95.8415 322.252 102.672 324.871 109.688C325.234 110.665 325.588 111.642 325.932 112.629V112.638C327.467 116.974 328.82 121.391 329.989 125.889C333.596 139.728 335.416 153.972 335.405 168.274Z" fill="white"/>
<path d="M149.946 55.2671C142.418 51.1966 134.061 48.8989 125.511 48.5491C116.961 48.1992 108.444 49.8066 100.609 53.2486C93.7111 56.2506 86.4477 61.636 84.1465 71.3609C93.4534 65.8683 105.501 74.5467 107.896 88.4686L107.337 88.6226C106.072 98.2655 108.896 108.764 114.363 114.743C115.08 108.532 119.164 104.306 123.181 101.665C127.198 99.0246 131.641 97.1065 134.707 92.5679C138.341 87.1873 139.264 79.3236 140.708 72.15C142.152 64.9763 144.891 57.266 149.946 55.2671Z" fill="#0369A1"/>
<path d="M97.85 137.326C95.2724 141.197 91.8295 143.625 88.7402 146.65C85.6602 149.683 82.7289 153.777 82.1149 159.035C81.724 162.403 82.3289 165.828 82.245 169.234C82.1614 172.639 81.0261 176.473 78.7091 177.32C75.0521 178.641 72.2605 171.848 68.5013 171.374C65.5142 171.001 62.8251 175.701 63.6904 179.776C64.5558 183.852 68.6223 185.657 70.9579 182.996C73.0702 186.541 71.5813 192.971 68.4082 194.06C68.0732 196.293 67.7383 198.517 67.4125 200.75C59.3914 195.139 51.2865 189.435 44.4658 181.219C36.88 172.158 32.1749 161.037 30.9545 149.283C30.0706 139.838 31.3826 129.035 27.0464 121.767C23.5754 115.952 17.62 114.667 12.2602 115.03C11.2832 115.096 10.2969 115.207 9.31982 115.328C12.4807 105.835 16.4953 96.6468 21.3142 87.8776C22.4048 87.4095 23.4181 86.7789 24.3198 86.0073C29.3075 81.7734 31.5222 73.2032 35.5699 67.2757C35.8305 66.8942 36.1003 66.522 36.3795 66.1591C40.5204 60.7527 46.0663 57.9704 51.4261 55.3836C63.2903 49.6237 75.4988 43.7893 88.0237 44.5895L84.4598 44.9338C80.3004 56.584 76.1379 68.2342 71.9722 79.8844C71.3393 81.6709 70.7004 83.4607 70.0553 85.2535C67.6917 91.8788 65.2538 98.9323 65.6167 106.349C65.8307 110.741 67.3567 115.43 70.26 116.938C72.9677 118.334 75.9268 116.622 78.5416 114.928C79.6489 114.221 80.747 113.514 81.8543 112.797C85.8277 110.238 90.229 107.614 94.4257 109.326C98.2688 110.889 101.107 116.11 101.647 121.739C102.141 127.212 100.806 132.694 97.85 137.326Z" fill="#0369A1"/>
<path d="M121.482 216.863C109.878 209.718 98.2733 202.573 86.6686 195.428L86.8656 194.921C79.6504 197.669 76.6549 210.494 77.8473 220.983C79.0397 231.471 83.0829 240.847 85.1255 251.067C87.8796 265.052 86.8401 279.52 82.1149 292.968C97.3742 275.846 110.879 257.237 122.425 237.421C124.038 234.924 125.268 232.198 126.072 229.336C126.809 226.291 126.696 222.63 125.219 220.188C124.269 218.786 122.985 217.644 121.482 216.863Z" fill="#0369A1"/>
<path d="M75.6817 86.8729C74.4495 89.6435 73.9754 93.3378 75.0936 96.2045C76.2357 99.1322 78.6499 100.455 80.8727 101.557L87.2848 104.735C89.418 105.793 91.7172 106.861 93.8918 105.991C96.5147 104.941 98.3332 100.829 97.8628 97.0121C97.3621 92.9499 94.8016 90.1557 92.4335 87.7762C89.1195 84.4463 85.8055 81.1164 82.4916 77.7866L80.6239 80.0741C78.6038 82.0445 76.9327 84.3434 75.6817 86.8729Z" fill="#0369A1"/>
<path d="M301.393 130.301C304.278 130.98 307.162 131.659 310.047 132.339C309.544 142.081 304.715 151.098 298.239 154.364C295.54 155.723 292.534 156.225 290.301 158.766C288.282 161.073 287.258 164.665 286.318 168.099C284.671 174.091 283.024 180.084 281.377 186.076C279.609 192.534 277.339 199.709 272.742 202.035C268.797 204.036 264.284 201.588 261.25 197.485C258.217 193.381 256.365 187.863 254.569 182.485C254.681 188.347 251.954 194.098 248.092 196.135C244.221 198.173 239.513 196.331 236.926 191.781C235.065 188.514 234.293 184.206 232.469 180.893C230.645 177.581 226.821 175.682 224.829 178.79C223.517 180.856 223.685 184.02 223.033 186.644C222.019 190.72 218.948 193.279 215.906 193.502C212.872 193.725 209.913 191.976 207.373 189.603C202.134 184.69 198.272 176.892 196.774 168.229C196.113 164.367 195.927 160.161 197.072 156.542C198.216 152.922 200.98 150.13 203.725 150.819C205.53 147.004 201.966 141.942 198.756 142.388C195.536 142.835 193.015 146.287 190.372 148.939C187.739 151.591 184.054 153.517 181.402 150.884C181.42 153.331 179.429 154.95 177.707 154.746C175.995 154.55 174.469 153.173 172.897 152.196C166.82 148.409 159.106 150.921 154.789 158.086C157.487 146.604 161.442 133.427 169.733 130.729C173.12 129.621 176.814 130.533 180.015 128.616C185.682 125.22 186.827 112.388 181.932 107.093C182.555 112.1 182.435 117.943 179.792 121.368C177.149 124.792 171.603 122.559 171.938 117.497C171.175 120.986 167.379 121.517 165.629 118.837C163.871 116.157 164.019 111.774 165.266 108.573C166.513 105.372 168.635 103.073 170.691 100.868C175.111 96.1318 179.596 91.3395 184.714 88.3618C189.842 85.3841 195.76 84.3792 200.896 87.3383C203.604 88.9015 205.986 91.5071 208.75 92.8842C211.514 94.2707 215.022 94.094 216.855 90.8556C218.911 87.2452 217.943 81.8853 218.706 77.3723C220.074 69.3977 228.049 65.6663 232.469 70.933C229.166 70.0863 225.75 73.9945 225.341 78.7309C224.922 83.4673 227.314 88.2502 230.515 89.6833C235.893 92.0653 241.16 86.0727 245.226 80.5268C249.47 74.7203 253.719 68.917 257.975 63.1167C258.654 62.1291 259.417 61.2014 260.254 60.3438C261.587 59.0446 263.364 58.3007 265.225 58.2627C267.086 58.2247 268.891 58.8954 270.276 60.1391C274.575 63.647 276.595 70.8401 280.121 75.7905C285.239 82.9834 292.897 84.7328 300.025 86.1286C305.338 87.1614 310.655 88.2005 315.975 89.2458C319.52 95.8427 322.614 102.673 325.233 109.69C316.226 113.514 307.916 120.67 301.393 130.301Z" fill="#0369A1"/>
<path d="M318.57 242.261C314.584 250.356 309.947 258.114 304.706 265.459C301.356 264.026 297.755 266.584 294.619 268.985C291.343 271.498 287.407 273.945 284.048 271.656C280.614 269.311 279.507 262.751 280.596 257.549C281.684 252.357 284.401 248.225 287.035 244.298C289.826 240.13 292.813 235.803 296.694 234.184C300.583 232.564 305.58 234.854 306.716 240.381L309.47 240.288C307.925 238.166 308.735 233.774 310.81 233.002C313.201 232.099 315.276 235.384 316.691 238.287C317.324 239.599 317.966 240.921 318.57 242.261Z" fill="#0369A1"/>
<path d="M213.081 202.955C207.16 203.328 202.471 196.039 199.355 188.869C196.238 181.699 193.395 173.5 188.053 169.851C185.001 167.765 181.521 167.479 178.21 166.469C174.899 165.458 171.434 163.367 169.851 159.109L166.096 157.592C161.136 160.381 156.111 163.22 151.837 167.759C147.044 172.85 144.059 179.377 143.341 186.333C142.624 193.85 145.273 202.232 150.223 205.056C154.134 207.287 158.688 205.881 162.65 207.924C167.599 210.476 170.538 217.889 171.651 225.209C172.763 232.529 172.481 240.137 173.277 247.54C174.073 254.943 176.266 262.646 180.806 266.439C186.486 271.187 194.822 267.242 197.37 258.6C198.621 254.361 198.577 249.578 199.512 245.177C201.159 237.428 205.602 231.679 209.126 225.322C212.651 218.966 215.425 210.332 213.081 202.955Z" fill="#0369A1"/>
<path d="M154.579 126.81C155.131 127.319 155.647 127.866 156.121 128.447C156.612 129.294 156.863 130.258 156.846 131.237C156.829 132.215 156.546 133.17 156.026 134C156.739 133.959 157.436 133.771 158.073 133.447C158.71 133.124 159.273 132.672 159.726 132.12C160.806 130.889 161.757 129.55 162.562 128.124C163.166 127.139 163.808 125.808 163.399 124.639C163.119 123.84 162.457 123.5 161.994 122.9C161.259 121.948 161.077 120.437 160.696 119.131C159.875 116.311 157.907 114.237 155.771 113.94L156.067 113.997C155.175 114.303 154.552 115.72 154.749 116.995C154.929 118.156 155.675 119.12 155.601 120.304C155.494 122.007 153.792 122.806 153.687 124.51C153.671 125.364 153.991 126.191 154.579 126.81Z" fill="#0369A1"/>
<path d="M144.436 97.8699C144.444 97.8675 144.453 97.867 144.462 97.8647C144.644 97.6988 144.813 97.5189 144.967 97.3267L144.436 97.8699Z" fill="#0369A1"/>
<path d="M146.212 105.863C147.521 105.021 148.252 102.694 147.819 100.745C147.389 98.8087 145.867 97.5068 144.462 97.8644C144.055 98.2774 143.549 98.58 142.993 98.7438C142.437 98.9076 141.848 98.9272 141.282 98.8009C140.414 98.5774 139.461 98.0019 138.708 98.6559C138.277 99.1443 137.976 99.7328 137.831 100.368C137.552 101.223 137.274 102.079 136.995 102.934C136.863 103.24 136.828 103.58 136.896 103.906C136.95 104.037 137.036 104.152 137.146 104.24C137.257 104.328 137.389 104.386 137.528 104.408C139.2 104.901 140.872 105.394 142.544 105.887C143.762 106.246 145.078 106.592 146.212 105.863Z" fill="#0369A1"/>
<path d="M272.43 216.223C271.657 214.958 270.884 213.692 270.111 212.427C269.352 210.961 268.314 209.658 267.056 208.591C266.779 208.359 266.459 208.185 266.114 208.079C265.769 207.972 265.406 207.936 265.047 207.972C264.688 208.008 264.34 208.116 264.023 208.288C263.706 208.461 263.427 208.695 263.202 208.977L263.296 209.699C265.057 211.91 266.921 214.365 267.368 217.645C267.544 218.938 267.483 220.276 267.637 221.575C267.792 222.874 268.231 224.221 269.069 224.781C270.286 225.594 271.715 224.395 272.581 222.932C273.356 221.731 273.703 220.304 273.567 218.881C273.374 217.926 272.987 217.022 272.43 216.223Z" fill="#0369A1"/>
<path d="M306.824 167.898C307.048 166.433 307.271 164.967 307.495 163.501C307.858 161.891 307.903 160.226 307.628 158.599C307.565 158.243 307.432 157.904 307.237 157.601C307.041 157.297 306.787 157.036 306.489 156.832C306.192 156.629 305.856 156.486 305.502 156.414C305.149 156.342 304.784 156.341 304.431 156.412L304.037 157.026C303.962 159.851 303.806 162.93 302.036 165.727C301.338 166.83 300.429 167.814 299.711 168.907C298.993 170 298.462 171.313 298.742 172.282C299.15 173.687 301.015 173.69 302.62 173.129C303.986 172.709 305.17 171.841 305.983 170.665C306.45 169.81 306.736 168.868 306.824 167.898Z" fill="#0369A1"/>
<path d="M284.554 217.869C284.932 216.783 284.386 215.537 284.271 214.337C284.216 212.786 284.627 211.255 285.451 209.94C286.27 208.7 286.891 207.34 287.29 205.909C287.459 205.257 287.428 204.569 287.202 203.935C286.946 203.36 286.327 203.098 285.971 203.553L286.732 204.043C285.705 203.859 284.65 203.911 283.645 204.192C283.072 204.412 282.56 204.766 282.153 205.225C281.746 205.684 281.455 206.234 281.306 206.829C281.18 207.757 280.975 208.673 280.692 209.565C280.239 210.498 279.36 210.808 278.808 211.627C278.432 212.352 278.242 213.16 278.256 213.978C278.269 214.795 278.486 215.596 278.886 216.309C279.579 217.475 280.681 218.341 281.977 218.74C282.906 219.073 284.129 219.091 284.554 217.869Z" fill="#0369A1"/>
<path d="M306.144 224.384C306.48 225.258 306.93 226.083 307.482 226.839C308.516 227.88 309.92 227.241 311.174 226.987C312.312 226.808 313.478 226.939 314.547 227.368C315.616 227.797 316.549 228.507 317.248 229.423C316.761 226.998 315.7 224.725 314.153 222.795C312.606 220.865 310.618 219.334 308.357 218.332C305.401 217.126 302.288 217.01 299.214 216.902L298.683 217.038C300.036 220.976 304.284 220.888 306.144 224.384Z" fill="#0369A1"/>
<path d="M214.702 232.439L214.709 232.456C214.761 232.357 214.812 232.258 214.864 232.158L214.702 232.439Z" fill="#0369A1"/>
<path d="M211.426 238.78C210.712 240.077 210.097 241.426 209.589 242.816C208.915 245.068 208.469 247.382 208.257 249.723C208.09 251.054 208.039 252.754 208.873 253.403C209.112 253.562 209.402 253.628 209.686 253.59C209.971 253.551 210.232 253.41 210.421 253.193C210.884 252.703 211.263 252.139 211.542 251.525C213.182 248.702 214.454 245.682 215.329 242.537C216.128 239.225 216.12 235.325 214.709 232.457C213.615 234.565 212.521 236.672 211.426 238.78Z" fill="#0369A1"/>
<path d="M179.828 69.8746C180.349 70.3832 181.006 70.7284 181.72 70.8678C182.434 71.0071 183.174 70.9345 183.847 70.659C185.241 70.0494 186.52 69.2045 187.628 68.1612C188.546 67.4825 189.324 66.6335 189.921 65.6607C190.249 65.0793 190.46 64.4388 190.54 63.7758C190.621 63.1128 190.569 62.4405 190.389 61.7974C189.872 60.2829 188.558 59.7752 187.398 59.4315C185.543 58.8811 183.687 58.3308 181.831 57.7805L183.174 56.5706C181.792 55.8293 180.264 57.205 179.401 58.9082C178.847 60.0203 178.461 61.2083 178.256 62.4334C177.794 65.1068 178.246 68.2902 179.828 69.8746Z" fill="#0369A1"/>
<path d="M212.592 58.8758C213.115 59.4525 213.838 59.8084 214.614 59.8716C215.39 59.9347 216.161 59.7002 216.77 59.2157C217.295 58.8218 217.73 58.3218 218.049 57.7483C218.367 57.1748 218.561 56.5406 218.618 55.8871C218.75 54.4274 218.028 52.805 216.997 52.679L217.233 51.3122C215.247 50.9536 212.803 50.8818 211.739 53.2933C211.38 54.217 211.27 55.2188 211.42 56.1984C211.569 57.1781 211.974 58.1013 212.592 58.8758Z" fill="#0369A1"/>
</svg>
