<svg width="410" height="411" viewBox="0 0 410 411" fill="none" xmlns="http://www.w3.org/2000/svg">
<path d="M409.778 205.334C409.783 232.242 404.487 258.887 394.193 283.748C383.898 308.609 368.806 331.198 349.779 350.225C330.753 369.251 308.164 384.343 283.303 394.638C258.442 404.933 231.797 410.228 204.889 410.223C91.7334 410.223 8.065e-05 318.49 8.065e-05 205.334C-0.0194515 183.324 3.50892 161.454 10.4495 140.566C24.0758 99.7733 50.181 64.2959 85.0735 39.1509C119.966 14.0059 161.88 0.465803 204.889 0.445325C241.981 0.43244 278.381 10.4925 310.202 29.5516C342.024 48.6106 368.072 75.9533 385.567 108.661C389.905 116.73 393.689 125.086 396.893 133.669C397.337 134.864 397.769 136.059 398.19 137.265V137.277C400.069 142.581 401.723 147.984 403.153 153.486C407.566 170.415 409.792 187.839 409.778 205.334Z" fill="#293754"/>
<path d="M182.915 67.0976C173.707 62.1184 163.484 59.3076 153.025 58.8797C142.566 58.4518 132.148 60.4181 122.564 64.6285C114.126 68.3007 105.241 74.8884 102.426 86.7845C113.811 80.0656 128.548 90.6815 131.478 107.711L130.794 107.9C129.246 119.696 132.701 132.538 139.388 139.852C140.266 132.255 145.261 127.084 150.175 123.854C155.088 120.624 160.524 118.278 164.274 112.726C168.72 106.144 169.849 96.5249 171.615 87.7497C173.381 78.9745 176.732 69.5428 182.915 67.0976Z" fill="white"/>
<path d="M119.188 167.476C116.035 172.211 111.823 175.182 108.044 178.881C104.276 182.592 100.691 187.6 99.9395 194.032C99.4614 198.152 100.201 202.341 100.099 206.507C99.9965 210.673 98.6077 215.363 95.7735 216.399C91.3 218.015 87.8851 209.706 83.2866 209.125C79.6327 208.67 76.3432 214.418 77.4017 219.404C78.4604 224.39 83.4346 226.598 86.2917 223.342C88.8756 227.679 87.0542 235.545 83.1728 236.876C82.7629 239.608 82.3533 242.329 81.9548 245.06C72.1429 238.197 62.2286 231.219 53.8851 221.168C44.6057 210.085 38.8502 196.481 37.3574 182.103C36.2761 170.549 37.881 157.334 32.5767 148.444C28.3308 141.33 21.0458 139.759 14.4894 140.203C13.2943 140.283 12.0878 140.419 10.8926 140.567C14.7592 128.954 19.67 117.715 25.5648 106.988C26.8988 106.416 28.1384 105.644 29.2414 104.7C35.3426 99.5212 38.0517 89.0377 43.0032 81.7868C43.3219 81.3201 43.652 80.8648 43.9935 80.421C49.0589 73.8075 55.8429 70.4041 62.3994 67.2396C76.9123 60.1938 91.8463 53.0569 107.168 54.0358L102.808 54.4569C97.72 68.7081 92.6281 82.9593 87.5324 97.2104C86.7583 99.3958 85.9767 101.585 85.1876 103.778C82.2964 111.883 79.3141 120.511 79.758 129.583C80.0198 134.955 81.8865 140.692 85.438 142.536C88.7503 144.244 92.37 142.149 95.5685 140.078C96.9231 139.213 98.2663 138.347 99.6208 137.471C104.481 134.341 109.865 131.131 114.999 133.225C119.7 135.138 123.172 141.523 123.832 148.41C124.437 155.104 122.804 161.81 119.188 167.476Z" fill="white"/>
<path d="M148.096 264.771C133.901 256.031 119.706 247.291 105.51 238.55L105.751 237.93C96.9253 241.291 93.2609 256.98 94.7196 269.81C96.1781 282.64 101.124 294.109 103.623 306.611C106.992 323.718 105.72 341.416 99.9399 357.866C118.606 336.922 135.125 314.159 149.25 289.918C151.223 286.863 152.727 283.529 153.71 280.028C154.612 276.303 154.473 271.825 152.667 268.838C151.506 267.123 149.934 265.726 148.096 264.771Z" fill="white"/>
<path d="M92.0697 105.759C90.5624 109.149 89.9824 113.668 91.3503 117.174C92.7473 120.756 95.7006 122.374 98.4195 123.722L106.263 127.61C108.873 128.903 111.685 130.21 114.345 129.145C117.554 127.862 119.778 122.832 119.203 118.162C118.59 113.193 115.458 109.775 112.561 106.864C108.507 102.791 104.454 98.7178 100.4 94.6445L98.1152 97.4428C95.6441 99.8531 93.5999 102.665 92.0697 105.759Z" fill="white"/>
<path d="M368.172 158.883C371.701 159.714 375.23 160.544 378.758 161.375C378.144 173.293 372.236 184.323 364.314 188.318C361.013 189.98 357.336 190.595 354.604 193.702C352.134 196.525 350.882 200.919 349.733 205.119C347.718 212.45 345.703 219.78 343.688 227.111C341.526 235.01 338.748 243.786 333.125 246.632C328.299 249.079 322.778 246.086 319.068 241.066C315.357 236.046 313.092 229.296 310.895 222.717C311.031 229.888 307.696 236.923 302.972 239.415C298.237 241.908 292.477 239.654 289.313 234.088C287.037 230.093 286.092 224.823 283.861 220.77C281.63 216.718 276.952 214.396 274.516 218.198C272.911 220.725 273.115 224.595 272.319 227.805C271.078 232.79 267.322 235.921 263.6 236.194C259.889 236.467 256.269 234.327 253.162 231.425C246.753 225.415 242.029 215.876 240.197 205.279C239.389 200.555 239.161 195.41 240.561 190.982C241.961 186.554 245.342 183.139 248.7 183.982C250.908 179.315 246.548 173.122 242.621 173.669C238.683 174.215 235.598 178.438 232.365 181.682C229.144 184.926 224.637 187.282 221.392 184.061C221.415 187.055 218.979 189.035 216.874 188.785C214.779 188.546 212.912 186.861 210.989 185.666C203.556 181.033 194.119 184.107 188.838 192.871C192.139 178.825 196.977 162.707 207.118 159.406C211.262 158.052 215.781 159.167 219.696 156.822C226.629 152.668 228.029 136.971 222.041 130.494C222.804 136.618 222.656 143.766 219.423 147.955C216.191 152.144 209.406 149.412 209.816 143.22C208.883 147.488 204.239 148.137 202.099 144.859C199.947 141.581 200.13 136.22 201.655 132.304C203.18 128.388 205.775 125.577 208.291 122.879C213.698 117.085 219.184 111.223 225.445 107.581C231.717 103.938 238.956 102.709 245.239 106.329C248.552 108.241 251.466 111.428 254.846 113.113C258.227 114.809 262.518 114.592 264.761 110.631C267.276 106.215 266.092 99.6582 267.026 94.1376C268.699 84.3827 278.454 79.8182 283.861 86.2607C279.82 85.2249 275.642 90.0057 275.142 95.7996C274.629 101.593 277.555 107.444 281.47 109.197C288.05 112.111 294.492 104.78 299.467 97.9964C304.657 90.8936 309.855 83.7946 315.061 76.6994C315.892 75.4913 316.825 74.3565 317.85 73.3073C319.48 71.7182 321.653 70.8081 323.93 70.7616C326.206 70.7151 328.415 71.5357 330.109 73.0569C335.368 77.3481 337.838 86.1471 342.152 92.2026C348.412 101.001 357.78 103.141 366.499 104.849C372.999 106.112 379.502 107.383 386.01 108.662C390.347 116.732 394.131 125.087 397.335 133.67C386.317 138.348 376.152 147.102 368.172 158.883Z" fill="white"/>
<path d="M389.186 295.838C384.309 305.74 378.637 315.231 372.226 324.215C368.128 322.462 363.723 325.593 359.887 328.529C355.88 331.603 351.065 334.596 346.956 331.796C342.756 328.928 341.401 320.903 342.733 314.54C344.065 308.189 347.388 303.134 350.61 298.331C354.025 293.232 357.678 287.939 362.425 285.958C367.183 283.977 373.295 286.778 374.684 293.539L378.054 293.425C376.164 290.83 377.154 285.457 379.693 284.512C382.618 283.408 385.156 287.426 386.886 290.978C387.661 292.583 388.446 294.199 389.186 295.838Z" fill="white"/>
<path d="M260.145 247.759C252.903 248.214 247.166 239.299 243.354 230.528C239.542 221.757 236.064 211.727 229.53 207.263C225.796 204.712 221.539 204.362 217.489 203.126C213.439 201.89 209.2 199.332 207.264 194.123L202.67 192.268C196.603 195.679 190.456 199.153 185.228 204.704C179.365 210.933 175.713 218.917 174.835 227.426C173.958 236.621 177.198 246.874 183.253 250.328C188.038 253.058 193.608 251.337 198.454 253.836C204.509 256.958 208.104 266.027 209.465 274.981C210.826 283.935 210.481 293.241 211.455 302.297C212.428 311.352 215.111 320.775 220.664 325.416C227.613 331.223 237.809 326.398 240.927 315.826C242.456 310.641 242.403 304.79 243.547 299.407C245.561 289.928 250.997 282.895 255.308 275.119C259.619 267.343 263.012 256.782 260.145 247.759Z" fill="white"/>
<path d="M188.582 154.613C189.258 155.235 189.888 155.904 190.468 156.615C191.069 157.65 191.375 158.83 191.355 160.027C191.335 161.224 190.988 162.393 190.352 163.407C191.225 163.357 192.077 163.127 192.856 162.732C193.635 162.336 194.323 161.783 194.878 161.107C196.2 159.602 197.362 157.964 198.347 156.22C199.086 155.015 199.872 153.387 199.371 151.956C199.028 150.98 198.219 150.563 197.652 149.829C196.753 148.665 196.53 146.816 196.065 145.219C195.06 141.769 192.653 139.232 190.04 138.869L190.403 138.939C189.311 139.313 188.549 141.046 188.79 142.606C189.01 144.026 189.923 145.205 189.832 146.654C189.701 148.737 187.62 149.715 187.491 151.798C187.471 152.843 187.863 153.855 188.582 154.613Z" fill="white"/>
<path d="M176.174 119.211C176.185 119.208 176.195 119.208 176.206 119.205C176.429 119.002 176.636 118.782 176.824 118.547L176.174 119.211Z" fill="white"/>
<path d="M178.347 128.99C179.948 127.96 180.842 125.112 180.313 122.729C179.787 120.36 177.925 118.768 176.207 119.205C175.709 119.71 175.09 120.08 174.41 120.281C173.729 120.481 173.009 120.505 172.316 120.351C171.254 120.077 170.089 119.373 169.168 120.173C168.641 120.771 168.272 121.491 168.095 122.267C167.754 123.314 167.414 124.36 167.073 125.406C166.911 125.781 166.869 126.196 166.952 126.596C167.017 126.756 167.122 126.897 167.258 127.004C167.393 127.112 167.554 127.183 167.725 127.21C169.77 127.813 171.815 128.416 173.86 129.019C175.351 129.458 176.96 129.882 178.347 128.99Z" fill="white"/>
<path d="M332.743 263.988C331.798 262.44 330.852 260.892 329.907 259.345C328.978 257.552 327.709 255.958 326.17 254.652C325.831 254.368 325.44 254.156 325.018 254.026C324.596 253.896 324.152 253.851 323.713 253.895C323.274 253.939 322.848 254.071 322.46 254.282C322.072 254.493 321.731 254.779 321.455 255.124L321.57 256.008C323.725 258.712 326.005 261.715 326.552 265.728C326.767 267.31 326.692 268.947 326.881 270.535C327.07 272.124 327.607 273.772 328.633 274.457C330.121 275.451 331.869 273.985 332.929 272.195C333.876 270.726 334.301 268.98 334.135 267.24C333.899 266.072 333.425 264.965 332.743 263.988Z" fill="white"/>
<path d="M374.817 204.874C375.091 203.082 375.364 201.289 375.638 199.496C376.082 197.526 376.137 195.489 375.8 193.499C375.724 193.064 375.561 192.649 375.322 192.278C375.083 191.907 374.772 191.587 374.408 191.338C374.044 191.089 373.633 190.915 373.201 190.827C372.768 190.738 372.322 190.737 371.889 190.824L371.408 191.575C371.316 195.031 371.126 198.796 368.96 202.218C368.106 203.567 366.995 204.771 366.116 206.109C365.238 207.446 364.588 209.052 364.931 210.236C365.43 211.956 367.711 211.96 369.674 211.273C371.345 210.759 372.794 209.697 373.788 208.259C374.36 207.213 374.71 206.061 374.817 204.874Z" fill="white"/>
<path d="M347.575 266.001C348.037 264.673 347.37 263.149 347.229 261.68C347.161 259.783 347.664 257.91 348.672 256.302C349.674 254.785 350.433 253.121 350.922 251.37C351.128 250.573 351.09 249.732 350.814 248.955C350.501 248.252 349.743 247.932 349.308 248.488L350.238 249.088C348.982 248.863 347.691 248.926 346.463 249.27C345.762 249.539 345.136 249.972 344.637 250.534C344.139 251.095 343.784 251.768 343.601 252.496C343.447 253.631 343.196 254.751 342.851 255.843C342.296 256.984 341.221 257.363 340.546 258.365C340.086 259.252 339.853 260.241 339.87 261.24C339.887 262.24 340.152 263.22 340.641 264.092C341.489 265.518 342.837 266.578 344.423 267.066C345.559 267.474 347.055 267.495 347.575 266.001Z" fill="white"/>
<path d="M373.985 273.971C374.396 275.04 374.946 276.05 375.621 276.974C376.886 278.248 378.604 277.465 380.138 277.156C381.53 276.936 382.956 277.097 384.263 277.622C385.571 278.146 386.713 279.015 387.567 280.136C386.972 277.169 385.674 274.388 383.782 272.027C381.889 269.666 379.458 267.794 376.692 266.567C373.076 265.093 369.267 264.951 365.507 264.818L364.857 264.985C366.513 269.803 371.71 269.695 373.985 273.971Z" fill="white"/>
<path d="M262.127 283.823L262.137 283.844C262.2 283.723 262.263 283.602 262.325 283.48L262.127 283.823Z" fill="white"/>
<path d="M258.12 291.58C257.246 293.166 256.495 294.817 255.872 296.518C255.048 299.272 254.502 302.103 254.243 304.966C254.039 306.595 253.977 308.674 254.997 309.468C255.29 309.662 255.643 309.743 255.992 309.696C256.34 309.649 256.659 309.476 256.89 309.211C257.456 308.611 257.92 307.922 258.262 307.171C260.267 303.718 261.824 300.023 262.895 296.176C263.871 292.124 263.862 287.354 262.136 283.846C260.797 286.424 259.459 289.002 258.12 291.58Z" fill="white"/>
<path d="M219.468 84.9671C220.104 85.5891 220.909 86.0115 221.782 86.1819C222.656 86.3524 223.56 86.2636 224.384 85.9265C226.089 85.1808 227.654 84.1473 229.009 82.8712C230.131 82.0408 231.083 81.0024 231.813 79.8123C232.215 79.1012 232.473 78.3176 232.571 77.5067C232.67 76.6957 232.607 75.8732 232.387 75.0865C231.753 73.2339 230.146 72.6129 228.728 72.1924C226.458 71.5192 224.188 70.8461 221.918 70.1729L223.56 68.6928C221.87 67.7861 220.001 69.4689 218.945 71.5524C218.268 72.9128 217.796 74.3659 217.544 75.8646C216.979 79.1347 217.532 83.0289 219.468 84.9671Z" fill="white"/>
<path d="M259.546 71.5111C260.186 72.2165 261.07 72.6519 262.02 72.7292C262.969 72.8064 263.912 72.5196 264.657 71.9269C265.299 71.445 265.832 70.8334 266.221 70.1318C266.611 69.4303 266.848 68.6546 266.918 67.8552C267.079 66.0696 266.196 64.0849 264.935 63.9308L265.223 62.2589C262.794 61.8202 259.805 61.7324 258.503 64.6822C258.064 65.8122 257.93 67.0376 258.113 68.236C258.296 69.4343 258.79 70.5637 259.546 71.5111Z" fill="white"/>
</svg>
